<?xml version="1.0" encoding="UTF-8" standalone="no"?>
<!-- Created with Inkscape (http://www.inkscape.org/) -->

<svg
   xmlns:dc="http://purl.org/dc/elements/1.1/"
   xmlns:cc="http://creativecommons.org/ns#"
   xmlns:rdf="http://www.w3.org/1999/02/22-rdf-syntax-ns#"
   xmlns:svg="http://www.w3.org/2000/svg"
   xmlns="http://www.w3.org/2000/svg"
   xmlns:sodipodi="http://sodipodi.sourceforge.net/DTD/sodipodi-0.dtd"
   xmlns:inkscape="http://www.inkscape.org/namespaces/inkscape"
   width="210mm"
   height="297mm"
   id="svg2"
   version="1.1"
   inkscape:version="0.48.3.1 r9886"
   sodipodi:docname="Nouveau document 1">
  <defs
     id="defs4" />
  <sodipodi:namedview
     id="base"
     pagecolor="#ffffff"
     bordercolor="#666666"
     borderopacity="1.0"
     inkscape:pageopacity="0.0"
     inkscape:pageshadow="2"
     inkscape:zoom="1.979899"
     inkscape:cx="318.82841"
     inkscape:cy="816.31741"
     inkscape:document-units="px"
     inkscape:current-layer="layer1"
     showgrid="true"
     inkscape:snap-grids="true"
     inkscape:window-width="1920"
     inkscape:window-height="1176"
     inkscape:window-x="0"
     inkscape:window-y="24"
     inkscape:window-maximized="1">
    <inkscape:grid
       type="xygrid"
       id="grid2985"
       empspacing="5"
       visible="true"
       enabled="true"
       snapvisiblegridlinesonly="true" />
  </sodipodi:namedview>
  <metadata
     id="metadata7">
    <rdf:RDF>
      <cc:Work
         rdf:about="">
        <dc:format>image/svg+xml</dc:format>
        <dc:type
           rdf:resource="http://purl.org/dc/dcmitype/StillImage" />
        <dc:title></dc:title>
      </cc:Work>
    </rdf:RDF>
  </metadata>
  <g
     inkscape:label="Calque 1"
     inkscape:groupmode="layer"
     id="layer1">
    <path
       sodipodi:type="arc"
       style="opacity:0.78508767999999984;color:#000000;fill:#e6deb3;fill-opacity:1;fill-rule:nonzero;stroke:none;stroke-width:1px;marker:none;visibility:visible;display:inline;overflow:visible;enable-background:accumulate"
       id="path3979"
       sodipodi:cx="120"
       sodipodi:cy="112.36218"
       sodipodi:rx="110"
       sodipodi:ry="80"
       d="m 230,112.36218 a 110,80 0 1 1 -220,0 110,80 0 1 1 220,0 z"
       transform="matrix(0.9805907,-0.36251481,0.36842539,0.99657864,-49.593934,43.6125)" />
    <path
       sodipodi:type="arc"
       style="opacity:0.78508767999999984;color:#000000;fill:#98add3;fill-opacity:1;fill-rule:nonzero;stroke:none;stroke-width:1px;marker:none;visibility:visible;display:inline;overflow:visible;enable-background:accumulate"
       id="path3979-0"
       sodipodi:cx="120"
       sodipodi:cy="112.36218"
       sodipodi:rx="110"
       sodipodi:ry="80"
       d="m 230,112.36218 a 110,80 0 1 1 -220,0 110,80 0 1 1 220,0 z"
       transform="matrix(0.57224852,-0.14732685,0.26490501,1.0289468,228.61754,20.63265)" />
    <path
       sodipodi:type="arc"
       style="opacity:0.78508767999999984;color:#000000;fill:#7ec472;fill-opacity:0.74509805;fill-rule:nonzero;stroke:none;stroke-width:1px;marker:none;visibility:visible;display:inline;overflow:visible;enable-background:accumulate"
       id="path3979-8"
       sodipodi:cx="120"
       sodipodi:cy="112.36218"
       sodipodi:rx="110"
       sodipodi:ry="80"
       d="m 230,112.36218 a 110,80 0 1 1 -220,0 110,80 0 1 1 220,0 z"
       transform="matrix(0.80517753,-0.24252259,0.21630395,0.71813137,81.769996,193.32358)" />
    <path
       style="fill:none;stroke:#000000;stroke-width:1px;stroke-linecap:butt;stroke-linejoin:miter;stroke-opacity:1"
       d="M 60,62.362183 60,182.36218"
       id="path3782"
       inkscape:connector-curvature="0" />
    <path
       style="fill:none;stroke:#000000;stroke-width:1px;stroke-linecap:butt;stroke-linejoin:miter;stroke-opacity:1"
       d="m 120,122.36218 -60,60"
       id="path3782-9"
       inkscape:connector-curvature="0"
       sodipodi:nodetypes="cc" />
    <path
       style="fill:none;stroke:#000000;stroke-width:1px;stroke-linecap:butt;stroke-linejoin:miter;stroke-opacity:1"
       d="m 60,62.362183 60,59.999997"
       id="path3782-0"
       inkscape:connector-curvature="0"
       sodipodi:nodetypes="cc" />
    <path
       style="fill:none;stroke:#000000;stroke-width:1px;stroke-linecap:butt;stroke-linejoin:miter;stroke-opacity:1"
       d="m 200,122.36218 -80,0"
       id="path3782-3"
       inkscape:connector-curvature="0"
       sodipodi:nodetypes="cc" />
    <path
       style="fill:none;stroke:#000000;stroke-width:1px;stroke-linecap:butt;stroke-linejoin:miter;stroke-opacity:1"
       d="m 340,62.362183 0,119.999997"
       id="path3782-02"
       inkscape:connector-curvature="0" />
    <path
       style="fill:none;stroke:#000000;stroke-width:1px;stroke-linecap:butt;stroke-linejoin:miter;stroke-opacity:1"
       d="m 280,122.36218 -80,0"
       id="path3782-3-8"
       inkscape:connector-curvature="0"
       sodipodi:nodetypes="cc" />
    <path
       style="fill:none;stroke:#000000;stroke-width:1px;stroke-linecap:butt;stroke-linejoin:miter;stroke-opacity:1"
       d="M 340,62.362183 280,122.36218"
       id="path3782-3-87"
       inkscape:connector-curvature="0"
       sodipodi:nodetypes="cc" />
    <path
       style="fill:none;stroke:#000000;stroke-width:1px;stroke-linecap:butt;stroke-linejoin:miter;stroke-opacity:1"
       d="m 340,182.36218 -60,-60"
       id="path3782-3-4"
       inkscape:connector-curvature="0"
       sodipodi:nodetypes="cc" />
    <path
       style="fill:none;stroke:#000000;stroke-width:1px;stroke-linecap:butt;stroke-linejoin:miter;stroke-opacity:1"
       d="m 200,202.36218 0,-80"
       id="path3782-3-5"
       inkscape:connector-curvature="0"
       sodipodi:nodetypes="cc" />
    <path
       style="fill:none;stroke:#000000;stroke-width:1px;stroke-linecap:butt;stroke-linejoin:miter;stroke-opacity:1"
       d="m 200,202.36218 -60,60"
       id="path3782-3-9"
       inkscape:connector-curvature="0"
       sodipodi:nodetypes="cc" />
    <path
       style="fill:none;stroke:#000000;stroke-width:1px;stroke-linecap:butt;stroke-linejoin:miter;stroke-opacity:1"
       d="m 260,262.36218 -60,-60"
       id="path3782-3-6"
       inkscape:connector-curvature="0"
       sodipodi:nodetypes="cc" />
    <path
       style="fill:none;stroke:#000000;stroke-width:1px;stroke-linecap:butt;stroke-linejoin:miter;stroke-opacity:1"
       d="m 260,262.36218 -120,0"
       id="path3782-3-7"
       inkscape:connector-curvature="0"
       sodipodi:nodetypes="cc" />
    <path
       sodipodi:type="arc"
       style="opacity:1;color:#000000;fill:#92a1a4;fill-opacity:1;fill-rule:nonzero;stroke:none;stroke-width:1px;marker:none;visibility:visible;display:inline;overflow:visible;enable-background:accumulate"
       id="path2987"
       sodipodi:cx="60"
       sodipodi:cy="62.362183"
       sodipodi:rx="10"
       sodipodi:ry="10"
       d="m 70,62.362183 a 10,10 0 1 1 -20,0 10,10 0 1 1 20,0 z" />
    <path
       transform="translate(60,60)"
       sodipodi:type="arc"
       style="opacity:1;color:#000000;fill:#92a1a4;fill-opacity:1;fill-rule:nonzero;stroke:none;stroke-width:1px;marker:none;visibility:visible;display:inline;overflow:visible;enable-background:accumulate"
       id="path2987-2"
       sodipodi:cx="60"
       sodipodi:cy="62.362183"
       sodipodi:rx="10"
       sodipodi:ry="10"
       d="m 70,62.362183 a 10,10 0 1 1 -20,0 10,10 0 1 1 20,0 z" />
    <path
       transform="translate(220,60)"
       sodipodi:type="arc"
       style="opacity:1;color:#000000;fill:#92a1a4;fill-opacity:1;fill-rule:nonzero;stroke:none;stroke-width:1px;marker:none;visibility:visible;display:inline;overflow:visible;enable-background:accumulate"
       id="path2987-2-0"
       sodipodi:cx="60"
       sodipodi:cy="62.362183"
       sodipodi:rx="10"
       sodipodi:ry="10"
       d="m 70,62.362183 a 10,10 0 1 1 -20,0 10,10 0 1 1 20,0 z" />
    <path
       transform="translate(280,2.6171874e-6)"
       sodipodi:type="arc"
       style="opacity:1;color:#000000;fill:#92a1a4;fill-opacity:1;fill-rule:nonzero;stroke:none;stroke-width:1px;marker:none;visibility:visible;display:inline;overflow:visible;enable-background:accumulate"
       id="path2987-0"
       sodipodi:cx="60"
       sodipodi:cy="62.362183"
       sodipodi:rx="10"
       sodipodi:ry="10"
       d="m 70,62.362183 a 10,10 0 1 1 -20,0 10,10 0 1 1 20,0 z" />
    <path
       transform="translate(280,120)"
       sodipodi:type="arc"
       style="opacity:1;color:#000000;fill:#92a1a4;fill-opacity:1;fill-rule:nonzero;stroke:none;stroke-width:1px;marker:none;visibility:visible;display:inline;overflow:visible;enable-background:accumulate"
       id="path2987-8-2"
       sodipodi:cx="60"
       sodipodi:cy="62.362183"
       sodipodi:rx="10"
       sodipodi:ry="10"
       d="m 70,62.362183 a 10,10 0 1 1 -20,0 10,10 0 1 1 20,0 z" />
    <path
       transform="translate(140,140)"
       sodipodi:type="arc"
       style="opacity:1;color:#000000;fill:#92a1a4;fill-opacity:1;fill-rule:nonzero;stroke:none;stroke-width:1px;marker:none;visibility:visible;display:inline;overflow:visible;enable-background:accumulate"
       id="path2987-2-8-2"
       sodipodi:cx="60"
       sodipodi:cy="62.362183"
       sodipodi:rx="10"
       sodipodi:ry="10"
       d="m 70,62.362183 a 10,10 0 1 1 -20,0 10,10 0 1 1 20,0 z" />
    <path
       transform="translate(80,200)"
       sodipodi:type="arc"
       style="opacity:1;color:#000000;fill:#92a1a4;fill-opacity:1;fill-rule:nonzero;stroke:none;stroke-width:1px;marker:none;visibility:visible;display:inline;overflow:visible;enable-background:accumulate"
       id="path2987-2-8-2-7"
       sodipodi:cx="60"
       sodipodi:cy="62.362183"
       sodipodi:rx="10"
       sodipodi:ry="10"
       d="m 70,62.362183 a 10,10 0 1 1 -20,0 10,10 0 1 1 20,0 z" />
    <path
       transform="translate(200,200)"
       sodipodi:type="arc"
       style="opacity:1;color:#000000;fill:#92a1a4;fill-opacity:1;fill-rule:nonzero;stroke:none;stroke-width:1px;marker:none;visibility:visible;display:inline;overflow:visible;enable-background:accumulate"
       id="path2987-2-8-2-8"
       sodipodi:cx="60"
       sodipodi:cy="62.362183"
       sodipodi:rx="10"
       sodipodi:ry="10"
       d="m 70,62.362183 a 10,10 0 1 1 -20,0 10,10 0 1 1 20,0 z" />
    <path
       transform="translate(0,120)"
       sodipodi:type="arc"
       style="opacity:1;color:#000000;fill:#92a1a4;fill-opacity:1;fill-rule:nonzero;stroke:none;stroke-width:1px;marker:none;visibility:visible;display:inline;overflow:visible;enable-background:accumulate"
       id="path2987-8"
       sodipodi:cx="60"
       sodipodi:cy="62.362183"
       sodipodi:rx="10"
       sodipodi:ry="10"
       d="m 70,62.362183 a 10,10 0 1 1 -20,0 10,10 0 1 1 20,0 z" />
    <path
       transform="translate(140,60)"
       sodipodi:type="arc"
       style="opacity:1;color:#000000;fill:#92a1a4;fill-opacity:1;fill-rule:nonzero;stroke:none;stroke-width:1px;marker:none;visibility:visible;display:inline;overflow:visible;enable-background:accumulate"
       id="path2987-2-8"
       sodipodi:cx="60"
       sodipodi:cy="62.362183"
       sodipodi:rx="10"
       sodipodi:ry="10"
       d="m 70,62.362183 a 10,10 0 1 1 -20,0 10,10 0 1 1 20,0 z" />
    <path
       sodipodi:type="arc"
       style="opacity:0.78508768;color:#000000;fill:#e6deb3;fill-opacity:1;fill-rule:nonzero;stroke:none;stroke-width:1px;marker:none;visibility:visible;display:inline;overflow:visible;enable-background:accumulate"
       id="path3979-4"
       sodipodi:cx="120"
       sodipodi:cy="112.36218"
       sodipodi:rx="110"
       sodipodi:ry="80"
       d="m 230,112.36218 a 110,80 0 1 1 -220,0 110,80 0 1 1 220,0 z"
       transform="matrix(0.9805907,-0.36251481,0.36842539,0.99657864,400.40607,73.6125)" />
    <path
       style="fill:none;stroke:#ff0404;stroke-width:1px;stroke-linecap:butt;stroke-linejoin:miter;stroke-opacity:1"
       d="m 510,92.36218 0,120"
       id="path3782-1"
       inkscape:connector-curvature="0" />
    <path
       style="fill:none;stroke:#ff0404;stroke-width:1px;stroke-linecap:butt;stroke-linejoin:miter;stroke-opacity:1"
       d="m 570,152.36218 -60,60"
       id="path3782-9-3"
       inkscape:connector-curvature="0"
       sodipodi:nodetypes="cc" />
    <path
       style="fill:none;stroke:#ff0404;stroke-width:1px;stroke-linecap:butt;stroke-linejoin:miter;stroke-opacity:1"
       d="m 510,92.36218 60,60"
       id="path3782-0-6"
       inkscape:connector-curvature="0"
       sodipodi:nodetypes="cc" />
    <path
       style="fill:none;stroke:#ff0404;stroke-width:1px;stroke-linecap:butt;stroke-linejoin:miter;stroke-opacity:1"
       d="m 650,152.36218 -80,0"
       id="path3782-3-84"
       inkscape:connector-curvature="0"
       sodipodi:nodetypes="cc" />
    <path
       style="fill:none;stroke:#1fff09;stroke-width:1px;stroke-linecap:butt;stroke-linejoin:miter;stroke-opacity:1"
       d="m 730,152.36218 -80,0"
       id="path3782-3-8-3"
       inkscape:connector-curvature="0"
       sodipodi:nodetypes="cc" />
    <path
       style="fill:none;stroke:#1fff09;stroke-width:1px;stroke-linecap:butt;stroke-linejoin:miter;stroke-opacity:1"
       d="m 650,232.36218 0,-80"
       id="path3782-3-5-2"
       inkscape:connector-curvature="0"
       sodipodi:nodetypes="cc" />
    <path
       transform="translate(450,30)"
       sodipodi:type="arc"
       style="color:#000000;fill:#92a1a4;fill-opacity:1;fill-rule:nonzero;stroke:none;stroke-width:1px;marker:none;visibility:visible;display:inline;overflow:visible;enable-background:accumulate"
       id="path2987-5"
       sodipodi:cx="60"
       sodipodi:cy="62.362183"
       sodipodi:rx="10"
       sodipodi:ry="10"
       d="m 70,62.362183 a 10,10 0 1 1 -20,0 10,10 0 1 1 20,0 z" />
    <path
       transform="translate(510,90)"
       sodipodi:type="arc"
       style="color:#000000;fill:#92a1a4;fill-opacity:1;fill-rule:nonzero;stroke:none;stroke-width:1px;marker:none;visibility:visible;display:inline;overflow:visible;enable-background:accumulate"
       id="path2987-2-85"
       sodipodi:cx="60"
       sodipodi:cy="62.362183"
       sodipodi:rx="10"
       sodipodi:ry="10"
       d="m 70,62.362183 a 10,10 0 1 1 -20,0 10,10 0 1 1 20,0 z" />
    <path
       transform="translate(450,150)"
       sodipodi:type="arc"
       style="color:#000000;fill:#92a1a4;fill-opacity:1;fill-rule:nonzero;stroke:none;stroke-width:1px;marker:none;visibility:visible;display:inline;overflow:visible;enable-background:accumulate"
       id="path2987-8-5"
       sodipodi:cx="60"
       sodipodi:cy="62.362183"
       sodipodi:rx="10"
       sodipodi:ry="10"
       d="m 70,62.362183 a 10,10 0 1 1 -20,0 10,10 0 1 1 20,0 z" />
    <path
       transform="translate(590,90)"
       sodipodi:type="arc"
       style="color:#000000;fill:#92a1a4;fill-opacity:1;fill-rule:nonzero;stroke:none;stroke-width:1px;marker:none;visibility:visible;display:inline;overflow:visible;enable-background:accumulate"
       id="path2987-2-8-4"
       sodipodi:cx="60"
       sodipodi:cy="62.362183"
       sodipodi:rx="10"
       sodipodi:ry="10"
       d="m 70,62.362183 a 10,10 0 1 1 -20,0 10,10 0 1 1 20,0 z" />
    <path
       sodipodi:type="arc"
       style="opacity:0.78508768;color:#000000;fill:#e6deb3;fill-opacity:1;fill-rule:nonzero;stroke:none;stroke-width:1px;marker:none;visibility:visible;display:inline;overflow:visible;enable-background:accumulate"
       id="path3979-4-9"
       sodipodi:cx="120"
       sodipodi:cy="112.36218"
       sodipodi:rx="110"
       sodipodi:ry="80"
       d="m 230,112.36218 a 110,80 0 1 1 -220,0 110,80 0 1 1 220,0 z"
       transform="matrix(0.9805907,-0.36251481,0.36842539,0.99657864,300.40607,333.6125)" />
    <path
       style="fill:none;stroke:#ff0404;stroke-width:1px;stroke-linecap:butt;stroke-linejoin:miter;stroke-opacity:1"
       d="m 410,427.36218 0,45"
       id="path3782-1-1"
       inkscape:connector-curvature="0"
       sodipodi:nodetypes="cc" />
    <path
       style="fill:none;stroke:#ff0404;stroke-width:1px;stroke-linecap:butt;stroke-linejoin:miter;stroke-opacity:1"
       d="m 470,412.36218 -25,25"
       id="path3782-9-3-0"
       inkscape:connector-curvature="0"
       sodipodi:nodetypes="cc" />
    <path
       style="fill:none;stroke:#ff0404;stroke-width:1px;stroke-linecap:butt;stroke-linejoin:miter;stroke-opacity:1"
       d="m 410,352.36218 0,45"
       id="path3782-1-1-8"
       inkscape:connector-curvature="0"
       sodipodi:nodetypes="cc" />
    <path
       style="fill:none;stroke:#ff0404;stroke-width:1px;stroke-linecap:butt;stroke-linejoin:miter;stroke-opacity:1"
       d="m 445,387.36218 25,25"
       id="path3782-0-6-2"
       inkscape:connector-curvature="0"
       sodipodi:nodetypes="cc" />
    <path
       style="fill:none;stroke:#ff0404;stroke-width:1px;stroke-linecap:butt;stroke-linejoin:miter;stroke-opacity:1"
       d="m 500,412.36218 -30,0"
       id="path3782-3-84-2"
       inkscape:connector-curvature="0"
       sodipodi:nodetypes="cc" />
    <path
       style="fill:none;stroke:#1fff09;stroke-width:1px;stroke-linecap:butt;stroke-linejoin:miter;stroke-opacity:1"
       d="m 590,412.36218 -40,0"
       id="path3782-3-8-3-9"
       inkscape:connector-curvature="0"
       sodipodi:nodetypes="cc" />
    <path
       style="fill:none;stroke:#1fff09;stroke-width:1px;stroke-linecap:butt;stroke-linejoin:miter;stroke-opacity:1"
       d="m 550,462.36218 0,-50"
       id="path3782-3-5-2-9"
       inkscape:connector-curvature="0"
       sodipodi:nodetypes="cc" />
    <path
       style="fill:none;stroke:#ff0404;stroke-width:1px;stroke-linecap:butt;stroke-linejoin:miter;stroke-opacity:1"
       d="m 410,352.36218 25,25"
       id="path3782-0-6-2-2"
       inkscape:connector-curvature="0"
       sodipodi:nodetypes="cc" />
    <path
       transform="translate(350,290)"
       sodipodi:type="arc"
       style="color:#000000;fill:#92a1a4;fill-opacity:1;fill-rule:nonzero;stroke:none;stroke-width:1px;marker:none;visibility:visible;display:inline;overflow:visible;enable-background:accumulate"
       id="path2987-5-0"
       sodipodi:cx="60"
       sodipodi:cy="62.362183"
       sodipodi:rx="10"
       sodipodi:ry="10"
       d="m 70,62.362183 a 10,10 0 1 1 -20,0 10,10 0 1 1 20,0 z" />
    <path
       transform="translate(410,350)"
       sodipodi:type="arc"
       style="color:#000000;fill:#92a1a4;fill-opacity:1;fill-rule:nonzero;stroke:none;stroke-width:1px;marker:none;visibility:visible;display:inline;overflow:visible;enable-background:accumulate"
       id="path2987-2-85-8"
       sodipodi:cx="60"
       sodipodi:cy="62.362183"
       sodipodi:rx="10"
       sodipodi:ry="10"
       d="m 70,62.362183 a 10,10 0 1 1 -20,0 10,10 0 1 1 20,0 z" />
    <path
       style="fill:none;stroke:#ff0404;stroke-width:1px;stroke-linecap:butt;stroke-linejoin:miter;stroke-opacity:1"
       d="m 435,447.36218 -25,25"
       id="path3782-9-3-0-7"
       inkscape:connector-curvature="0"
       sodipodi:nodetypes="cc" />
    <path
       transform="translate(350,410)"
       sodipodi:type="arc"
       style="color:#000000;fill:#92a1a4;fill-opacity:1;fill-rule:nonzero;stroke:none;stroke-width:1px;marker:none;visibility:visible;display:inline;overflow:visible;enable-background:accumulate"
       id="path2987-8-5-3"
       sodipodi:cx="60"
       sodipodi:cy="62.362183"
       sodipodi:rx="10"
       sodipodi:ry="10"
       d="m 70,62.362183 a 10,10 0 1 1 -20,0 10,10 0 1 1 20,0 z" />
    <path
       style="fill:none;stroke:#ff0404;stroke-width:1px;stroke-linecap:butt;stroke-linejoin:miter;stroke-opacity:1"
       d="m 550,412.36218 -30,0"
       id="path3782-9-3-0-5"
       inkscape:connector-curvature="0"
       sodipodi:nodetypes="cc" />
    <path
       style="fill:none;stroke:#ff0404;stroke-width:1px;stroke-linecap:butt;stroke-linejoin:miter;stroke-opacity:1"
       d="m 520,407.36218 0,10"
       id="path3782-9-3-0-1"
       inkscape:connector-curvature="0"
       sodipodi:nodetypes="cc" />
    <path
       style="fill:none;stroke:#ff0404;stroke-width:1px;stroke-linecap:butt;stroke-linejoin:miter;stroke-opacity:1"
       d="m 500,407.36218 0,10"
       id="path3782-9-3-0-1-8"
       inkscape:connector-curvature="0"
       sodipodi:nodetypes="cc" />
    <path
       style="fill:none;stroke:#ff0404;stroke-width:1px;stroke-linecap:butt;stroke-linejoin:miter;stroke-opacity:1"
       d="m 405,427.36218 10,0"
       id="path3782-9-3-0-1-8-3"
       inkscape:connector-curvature="0"
       sodipodi:nodetypes="cc" />
    <path
       style="fill:none;stroke:#ff0404;stroke-width:1px;stroke-linecap:butt;stroke-linejoin:miter;stroke-opacity:1"
       d="m 415,397.36218 -10,0"
       id="path3782-9-3-0-1-8-4"
       inkscape:connector-curvature="0"
       sodipodi:nodetypes="cc" />
    <path
       style="fill:none;stroke:#ff0404;stroke-width:1px;stroke-linecap:butt;stroke-linejoin:miter;stroke-opacity:1"
       d="m 440,372.36218 -10,10"
       id="path3782-9-3-0-1-8-8"
       inkscape:connector-curvature="0"
       sodipodi:nodetypes="cc" />
    <path
       style="fill:none;stroke:#ff0404;stroke-width:1px;stroke-linecap:butt;stroke-linejoin:miter;stroke-opacity:1"
       d="m 450,382.36218 -10,10"
       id="path3782-9-3-0-1-8-40"
       inkscape:connector-curvature="0"
       sodipodi:nodetypes="cc" />
    <path
       style="fill:none;stroke:#ff0404;stroke-width:1px;stroke-linecap:butt;stroke-linejoin:miter;stroke-opacity:1"
       d="m 430,442.36218 10,10"
       id="path3782-9-3-0-1-8-6"
       inkscape:connector-curvature="0"
       sodipodi:nodetypes="cc" />
    <path
       transform="translate(490,350)"
       sodipodi:type="arc"
       style="color:#000000;fill:#92a1a4;fill-opacity:1;fill-rule:nonzero;stroke:none;stroke-width:1px;marker:none;visibility:visible;display:inline;overflow:visible;enable-background:accumulate"
       id="path2987-2-8-4-9"
       sodipodi:cx="60"
       sodipodi:cy="62.362183"
       sodipodi:rx="10"
       sodipodi:ry="10"
       d="m 70,62.362183 a 10,10 0 1 1 -20,0 10,10 0 1 1 20,0 z" />
  </g>
</svg>
