<?xml version="1.0" encoding="UTF-8" standalone="no"?>
<!-- Created with Inkscape (http://www.inkscape.org/) -->

<svg
   xmlns:dc="http://purl.org/dc/elements/1.1/"
   xmlns:cc="http://creativecommons.org/ns#"
   xmlns:rdf="http://www.w3.org/1999/02/22-rdf-syntax-ns#"
   xmlns:svg="http://www.w3.org/2000/svg"
   xmlns="http://www.w3.org/2000/svg"
   xmlns:sodipodi="http://sodipodi.sourceforge.net/DTD/sodipodi-0.dtd"
   xmlns:inkscape="http://www.inkscape.org/namespaces/inkscape"
   width="389"
   height="408"
   id="svg4771"
   version="1.1"
   inkscape:version="0.48.2 r9819"
   sodipodi:docname="Network_Community_Structure.svg">
  <defs
     id="defs4773" />
  <sodipodi:namedview
     id="base"
     pagecolor="#ffffff"
     bordercolor="#666666"
     borderopacity="1.0"
     inkscape:pageopacity="0.0"
     inkscape:pageshadow="2"
     inkscape:zoom="1.4"
     inkscape:cx="53.638039"
     inkscape:cy="219.99492"
     inkscape:document-units="px"
     inkscape:current-layer="layer1"
     showgrid="false"
     inkscape:window-width="1680"
     inkscape:window-height="1026"
     inkscape:window-x="0"
     inkscape:window-y="24"
     inkscape:window-maximized="1" />
  <metadata
     id="metadata4776">
    <rdf:RDF>
      <cc:Work
         rdf:about="">
        <dc:format>image/svg+xml</dc:format>
        <dc:type
           rdf:resource="http://purl.org/dc/dcmitype/StillImage" />
        <dc:title></dc:title>
      </cc:Work>
    </rdf:RDF>
  </metadata>
  <g
     inkscape:label="Layer 1"
     inkscape:groupmode="layer"
     id="layer1"
     transform="translate(0,-644.36218)">
    <path
       sodipodi:type="arc"
       style="fill:#c5c5c5;fill-opacity:1;stroke-width:1.39999998000000003;stroke-miterlimit:4;stroke-dasharray:none"
       id="path4705-3"
       sodipodi:cx="99.711922"
       sodipodi:cy="215.80165"
       sodipodi:rx="80.925621"
       sodipodi:ry="80.925621"
       d="m 180.63754,215.80165 a 80.925621,80.925621 0 1 1 -161.851239,0 80.925621,80.925621 0 1 1 161.851239,0 z"
       transform="matrix(1.1721157,0,0,1.1721157,172.05466,699.06053)" />
    <path
       sodipodi:type="arc"
       style="fill:#c5c5c5;fill-opacity:1;stroke-width:1.39999998000000003;stroke-miterlimit:4;stroke-dasharray:none"
       id="path4705-8"
       sodipodi:cx="99.711922"
       sodipodi:cy="215.80165"
       sodipodi:rx="80.925621"
       sodipodi:ry="80.925621"
       d="m 180.63754,215.80165 a 80.925621,80.925621 0 1 1 -161.851239,0 80.925621,80.925621 0 1 1 161.851239,0 z"
       transform="matrix(1.0353058,0,0,1.0353058,199.05338,508.37005)" />
    <path
       sodipodi:type="arc"
       style="fill:#c5c5c5;fill-opacity:1;stroke-width:1.39999998000000003;stroke-miterlimit:4;stroke-dasharray:none"
       id="path4705"
       sodipodi:cx="99.711922"
       sodipodi:cy="215.80165"
       sodipodi:rx="80.925621"
       sodipodi:ry="80.925621"
       d="m 180.63754,215.80165 a 80.925621,80.925621 0 1 1 -161.851239,0 80.925621,80.925621 0 1 1 161.851239,0 z"
       transform="translate(-14.467919,631.16662)" />
    <path
       sodipodi:type="arc"
       style="fill:#000000;fill-opacity:1;fill-rule:evenodd;stroke:#000000;stroke-width:1px;stroke-linecap:butt;stroke-linejoin:miter;stroke-opacity:1"
       id="path3821"
       sodipodi:cx="82.683907"
       sodipodi:cy="145.81282"
       sodipodi:rx="6.0458884"
       sodipodi:ry="6.0458884"
       d="m 88.729795,145.81282 a 6.0458884,6.0458884 0 1 1 -12.091777,0 6.0458884,6.0458884 0 1 1 12.091777,0 z"
       transform="translate(1.9925313,644.08486)" />
    <path
       sodipodi:type="arc"
       style="fill:#000000;fill-opacity:1;fill-rule:evenodd;stroke:#000000;stroke-width:1px;stroke-linecap:butt;stroke-linejoin:miter;stroke-opacity:1"
       id="path3821-8"
       sodipodi:cx="82.683907"
       sodipodi:cy="145.81282"
       sodipodi:rx="6.0458884"
       sodipodi:ry="6.0458884"
       d="m 88.729795,145.81282 a 6.0458884,6.0458884 0 1 1 -12.091777,0 6.0458884,6.0458884 0 1 1 12.091777,0 z"
       transform="translate(-48.673719,713.14423)" />
    <path
       sodipodi:type="arc"
       style="fill:#000000;fill-opacity:1;fill-rule:evenodd;stroke:#000000;stroke-width:1px;stroke-linecap:butt;stroke-linejoin:miter;stroke-opacity:1"
       id="path3821-0"
       sodipodi:cx="82.683907"
       sodipodi:cy="145.81282"
       sodipodi:rx="6.0458884"
       sodipodi:ry="6.0458884"
       d="m 88.729795,145.81282 a 6.0458884,6.0458884 0 1 1 -12.091777,0 6.0458884,6.0458884 0 1 1 12.091777,0 z"
       transform="translate(13.999151,744.31036)" />
    <path
       sodipodi:type="arc"
       style="fill:#000000;fill-opacity:1;fill-rule:evenodd;stroke:#000000;stroke-width:1px;stroke-linecap:butt;stroke-linejoin:miter;stroke-opacity:1"
       id="path3821-4"
       sodipodi:cx="82.683907"
       sodipodi:cy="145.81282"
       sodipodi:rx="6.0458884"
       sodipodi:ry="6.0458884"
       d="m 88.729795,145.81282 a 6.0458884,6.0458884 0 1 1 -12.091777,0 6.0458884,6.0458884 0 1 1 12.091777,0 z"
       transform="translate(51.636941,682.14841)" />
    <path
       sodipodi:type="arc"
       style="fill:#000000;fill-opacity:1;fill-rule:evenodd;stroke:#000000;stroke-width:1px;stroke-linecap:butt;stroke-linejoin:miter;stroke-opacity:1"
       id="path3821-3"
       sodipodi:cx="82.683907"
       sodipodi:cy="145.81282"
       sodipodi:rx="6.0458884"
       sodipodi:ry="6.0458884"
       d="m 88.729795,145.81282 a 6.0458884,6.0458884 0 1 1 -12.091777,0 6.0458884,6.0458884 0 1 1 12.091777,0 z"
       transform="translate(164.03936,613.3445)" />
    <path
       sodipodi:type="arc"
       style="fill:#000000;fill-opacity:1;fill-rule:evenodd;stroke:#000000;stroke-width:1px;stroke-linecap:butt;stroke-linejoin:miter;stroke-opacity:1"
       id="path3821-43"
       sodipodi:cx="82.683907"
       sodipodi:cy="145.81282"
       sodipodi:rx="6.0458884"
       sodipodi:ry="6.0458884"
       d="m 88.729795,145.81282 a 6.0458884,6.0458884 0 1 1 -12.091777,0 6.0458884,6.0458884 0 1 1 12.091777,0 z"
       transform="translate(170.34071,556.63237)" />
    <path
       sodipodi:type="arc"
       style="fill:#000000;fill-opacity:1;fill-rule:evenodd;stroke:#000000;stroke-width:1px;stroke-linecap:butt;stroke-linejoin:miter;stroke-opacity:1"
       id="path3821-5"
       sodipodi:cx="82.683907"
       sodipodi:cy="145.81282"
       sodipodi:rx="6.0458884"
       sodipodi:ry="6.0458884"
       d="m 88.729795,145.81282 a 6.0458884,6.0458884 0 1 1 -12.091777,0 6.0458884,6.0458884 0 1 1 12.091777,0 z"
       transform="translate(233.01358,531.9379)" />
    <path
       sodipodi:type="arc"
       style="fill:#000000;fill-opacity:1;fill-rule:evenodd;stroke:#000000;stroke-width:1px;stroke-linecap:butt;stroke-linejoin:miter;stroke-opacity:1"
       id="path3821-1"
       sodipodi:cx="82.683907"
       sodipodi:cy="145.81282"
       sodipodi:rx="6.0458884"
       sodipodi:ry="6.0458884"
       d="m 88.729795,145.81282 a 6.0458884,6.0458884 0 1 1 -12.091777,0 6.0458884,6.0458884 0 1 1 12.091777,0 z"
       transform="translate(283.59468,569.40537)" />
    <path
       sodipodi:type="arc"
       style="fill:#000000;fill-opacity:1;fill-rule:evenodd;stroke:#000000;stroke-width:1px;stroke-linecap:butt;stroke-linejoin:miter;stroke-opacity:1"
       id="path3821-7"
       sodipodi:cx="82.683907"
       sodipodi:cy="145.81282"
       sodipodi:rx="6.0458884"
       sodipodi:ry="6.0458884"
       d="m 88.729795,145.81282 a 6.0458884,6.0458884 0 1 1 -12.091777,0 6.0458884,6.0458884 0 1 1 12.091777,0 z"
       transform="translate(229.09653,639.57174)" />
    <path
       sodipodi:type="arc"
       style="fill:#000000;fill-opacity:1;fill-rule:evenodd;stroke:#000000;stroke-width:1px;stroke-linecap:butt;stroke-linejoin:miter;stroke-opacity:1"
       id="path3821-431"
       sodipodi:cx="82.683907"
       sodipodi:cy="145.81282"
       sodipodi:rx="6.0458884"
       sodipodi:ry="6.0458884"
       d="m 88.729795,145.81282 a 6.0458884,6.0458884 0 1 1 -12.091777,0 6.0458884,6.0458884 0 1 1 12.091777,0 z"
       transform="translate(270.65136,769.00483)" />
    <path
       sodipodi:type="arc"
       style="fill:#000000;fill-opacity:1;fill-rule:evenodd;stroke:#000000;stroke-width:1px;stroke-linecap:butt;stroke-linejoin:miter;stroke-opacity:1"
       id="path3821-46"
       sodipodi:cx="82.683907"
       sodipodi:cy="145.81282"
       sodipodi:rx="6.0458884"
       sodipodi:ry="6.0458884"
       d="m 88.729795,145.81282 a 6.0458884,6.0458884 0 1 1 -12.091777,0 6.0458884,6.0458884 0 1 1 12.091777,0 z"
       transform="translate(214.45015,813.11427)" />
    <path
       sodipodi:type="arc"
       style="fill:#000000;fill-opacity:1;fill-rule:evenodd;stroke:#000000;stroke-width:1px;stroke-linecap:butt;stroke-linejoin:miter;stroke-opacity:1"
       id="path3821-9"
       sodipodi:cx="82.683907"
       sodipodi:cy="145.81282"
       sodipodi:rx="6.0458884"
       sodipodi:ry="6.0458884"
       d="m 88.729795,145.81282 a 6.0458884,6.0458884 0 1 1 -12.091777,0 6.0458884,6.0458884 0 1 1 12.091777,0 z"
       transform="translate(188.90414,743.96975)" />
    <path
       sodipodi:type="arc"
       style="fill:#000000;fill-opacity:1;fill-rule:evenodd;stroke:#000000;stroke-width:1px;stroke-linecap:butt;stroke-linejoin:miter;stroke-opacity:1"
       id="path3821-42"
       sodipodi:cx="82.683907"
       sodipodi:cy="145.81282"
       sodipodi:rx="6.0458884"
       sodipodi:ry="6.0458884"
       d="m 88.729795,145.81282 a 6.0458884,6.0458884 0 1 1 -12.091777,0 6.0458884,6.0458884 0 1 1 12.091777,0 z"
       transform="translate(139.17458,812.94398)" />
    <path
       sodipodi:type="arc"
       style="fill:#000000;fill-opacity:1;fill-rule:evenodd;stroke:#000000;stroke-width:1px;stroke-linecap:butt;stroke-linejoin:miter;stroke-opacity:1"
       id="path3821-2"
       sodipodi:cx="82.683907"
       sodipodi:cy="145.81282"
       sodipodi:rx="6.0458884"
       sodipodi:ry="6.0458884"
       d="m 88.729795,145.81282 a 6.0458884,6.0458884 0 1 1 -12.091777,0 6.0458884,6.0458884 0 1 1 12.091777,0 z"
       transform="translate(214.62046,875.44654)" />
    <path
       style="fill:none;stroke:#000000;stroke-width:1.39999998;stroke-linecap:butt;stroke-linejoin:miter;stroke-miterlimit:4;stroke-opacity:1;stroke-dasharray:none"
       d="m 85.442821,788.961 -51.77324,70.50698 61.99164,29.63337 z"
       id="path4693"
       inkscape:connector-curvature="0" />
    <path
       style="fill:none;stroke:#000000;stroke-width:1.39999998;stroke-linecap:butt;stroke-linejoin:miter;stroke-miterlimit:4;stroke-opacity:1;stroke-dasharray:none"
       d="M 35.713261,859.12737 134.15053,827.10971 84.080361,789.30162"
       id="path4695"
       inkscape:connector-curvature="0" />
    <path
       style="fill:none;stroke:#000000;stroke-width:1.39999998;stroke-linecap:butt;stroke-linejoin:miter;stroke-miterlimit:4;stroke-opacity:1;stroke-dasharray:none"
       d="m 134.15053,828.47216 87.87827,130.79555 74.93495,62.33229 56.54183,-106.95265 -81.74722,-25.20539 -49.72956,69.14453 74.59433,0.34061 -24.86477,-69.14453 39.85177,-104.2277 54.49814,-71.18821 -12.60269,200.62131 -131.8174,43.59852"
       id="path4697"
       inkscape:connector-curvature="0" />
    <path
       style="fill:none;stroke:#000000;stroke-width:1.39999998;stroke-linecap:butt;stroke-linejoin:miter;stroke-miterlimit:4;stroke-opacity:1;stroke-dasharray:none"
       d="m 297.30436,958.58649 0,61.99161"
       id="path4699"
       inkscape:connector-curvature="0" />
    <path
       style="fill:none;stroke:#000000;stroke-width:1.39999998;stroke-linecap:butt;stroke-linejoin:miter;stroke-miterlimit:4;stroke-opacity:1;stroke-dasharray:none"
       d="m 311.26951,785.55487 4.42798,-108.31507 -62.67287,25.20539 -6.13104,56.20121 119.89592,-43.93913 -113.76488,-12.6027 z"
       id="path4701"
       inkscape:connector-curvature="0" />
    <path
       style="fill:none;stroke:#000000;stroke-width:1.39999998;stroke-linecap:butt;stroke-linejoin:miter;stroke-miterlimit:4;stroke-opacity:1;stroke-dasharray:none"
       d="m 134.15053,827.79093 112.40243,-68.4633"
       id="path4703"
       inkscape:connector-curvature="0" />
  </g>
</svg>
