<?xml version="1.0" encoding="UTF-8" standalone="no"?>
<!-- Created with Inkscape (http://www.inkscape.org/) -->

<svg
   xmlns:dc="http://purl.org/dc/elements/1.1/"
   xmlns:cc="http://creativecommons.org/ns#"
   xmlns:rdf="http://www.w3.org/1999/02/22-rdf-syntax-ns#"
   xmlns:svg="http://www.w3.org/2000/svg"
   xmlns="http://www.w3.org/2000/svg"
   xmlns:sodipodi="http://sodipodi.sourceforge.net/DTD/sodipodi-0.dtd"
   xmlns:inkscape="http://www.inkscape.org/namespaces/inkscape"
   width="1000"
   height="500"
   id="svg2"
   version="1.1"
   inkscape:version="0.48.3.1 r9886"
   sodipodi:docname="gs3-improved.svg"
   inkscape:export-filename="/home/raziel/thesis/misc/gs3-improved.png"
   inkscape:export-xdpi="72"
   inkscape:export-ydpi="72">
  <defs
     id="defs4">
    <inkscape:perspective
       sodipodi:type="inkscape:persp3d"
       inkscape:vp_x="0 : 526.18109 : 1"
       inkscape:vp_y="0 : 1000 : 0"
       inkscape:vp_z="744.09448 : 526.18109 : 1"
       inkscape:persp3d-origin="372.04724 : 350.78739 : 1"
       id="perspective10" />
    <inkscape:perspective
       id="perspective3628"
       inkscape:persp3d-origin="0.5 : 0.33333333 : 1"
       inkscape:vp_z="1 : 0.5 : 1"
       inkscape:vp_y="0 : 1000 : 0"
       inkscape:vp_x="0 : 0.5 : 1"
       sodipodi:type="inkscape:persp3d" />
    <inkscape:perspective
       id="perspective3628-8"
       inkscape:persp3d-origin="0.5 : 0.33333333 : 1"
       inkscape:vp_z="1 : 0.5 : 1"
       inkscape:vp_y="0 : 1000 : 0"
       inkscape:vp_x="0 : 0.5 : 1"
       sodipodi:type="inkscape:persp3d" />
    <inkscape:perspective
       id="perspective3628-9"
       inkscape:persp3d-origin="0.5 : 0.33333333 : 1"
       inkscape:vp_z="1 : 0.5 : 1"
       inkscape:vp_y="0 : 1000 : 0"
       inkscape:vp_x="0 : 0.5 : 1"
       sodipodi:type="inkscape:persp3d" />
  </defs>
  <sodipodi:namedview
     id="base"
     pagecolor="#e0e6ed"
     bordercolor="#666666"
     borderopacity="1.0"
     inkscape:pageopacity="0"
     inkscape:pageshadow="2"
     inkscape:zoom="0.7"
     inkscape:cx="545.07731"
     inkscape:cy="303.50217"
     inkscape:document-units="px"
     inkscape:current-layer="g3702"
     showgrid="false"
     height="600px"
     inkscape:window-width="1008"
     inkscape:window-height="732"
     inkscape:window-x="106"
     inkscape:window-y="0"
     inkscape:window-maximized="0" />
  <metadata
     id="metadata7">
    <rdf:RDF>
      <cc:Work
         rdf:about="">
        <dc:format>image/svg+xml</dc:format>
        <dc:type
           rdf:resource="http://purl.org/dc/dcmitype/StillImage" />
        <dc:title></dc:title>
      </cc:Work>
    </rdf:RDF>
  </metadata>
  <g
     inkscape:label="Calque 1"
     inkscape:groupmode="layer"
     id="layer1"
     transform="translate(0,-552.36218)">
    <g
       id="g3702"
       transform="translate(10,119.7555)">
      <g
         style="font-size:400px;font-style:normal;font-variant:normal;font-weight:900;font-stretch:normal;text-align:start;line-height:125%;writing-mode:lr-tb;text-anchor:start;fill:#000000;fill-opacity:1;stroke:none;font-family:Exo;-inkscape-font-specification:Exo Heavy"
         id="text3610">
        <path
           d="m 454.84681,675.15906 c 0,82.39992 12.40008,155.19999 95.2,150 31.99997,-2 38.40001,-6.80002 49.6,-21.6 l 22,19.6 54.8,0 0,-174.4 c -9.59999,-0.8 -18.80001,-1.2 -27.2,-1.2 -26.39998,0 -52.00002,0.40001 -70,10 l 0,48 19.6,0 0,30 c 0,0 -4.00003,18.4 -28.8,18.4 -35.19997,0 -37.6,-12.40007 -37.6,-78 0,-65.19994 6.40004,-83.2 43.6,-83.2 50.79995,0 95.2,8.8 97.6,8.8 l 0,-59.6 c -53.99995,-14.79999 -58.00007,-14.8 -121.6,-14.8 -79.59992,0 -97.2,58.80009 -97.2,148"
           style=""
           id="path3678" />
      </g>
      <g
         style="font-size:400px;font-style:normal;font-variant:normal;font-weight:bold;font-stretch:normal;line-height:125%;fill:#000000;fill-opacity:1;stroke:none;font-family:Arial Black;-inkscape-font-specification:'Arial Black, Bold'"
         id="text3614">
        <path
           d="m 666.0489,631.55906 c 0,18.79998 3.20008,84.8 79.2,84.8 l 36,0 c 17.59998,0 21.2,6.00001 21.2,17.6 l 0,6.4 c 0,11.99999 -6.40002,16.4 -23.6,16.4 -37.19996,0 -87.60001,-2.8 -103.6,-4.4 l 0,60.4 c 39.99996,13.59998 48.80008,13.6 123.6,13.6 39.59996,0 81.2,-15.20008 81.2,-89.6 l 0,-13.2 c 0,-31.99997 -14.00006,-84.8 -74.8,-84.8 l -37.6,0 c -21.59998,0 -24,-6.80001 -24,-19.2 l 0,-4.4 c 0,-16.79999 8.00002,-17.6 29.6,-17.6 26.39997,0 70.40003,1.2 96,4 l 0,-60.4 c -29.59997,-10.79999 -64.80006,-16.8 -124,-13.2 -44.79995,2.79999 -79.2,26.80005 -79.2,79.2 l 0,24.4"
           style="font-weight:900;text-align:start;line-height:125%;writing-mode:lr-tb;text-anchor:start;font-family:Exo;-inkscape-font-specification:Exo Heavy"
           id="path3675" />
      </g>
    </g>
    <g
       id="g3677"
       transform="translate(10,134)"
       inkscape:export-filename="/home/raziel/thesis/misc/gs3-favicon.png"
       inkscape:export-xdpi="6.7354441"
       inkscape:export-ydpi="6.7354441">
      <g
         transform="translate(-169.70563,-40.406101)"
         id="g3604">
        <path
           sodipodi:type="arc"
           style="fill:none;stroke:#000000;stroke-width:18.47872925;stroke-linecap:round;stroke-linejoin:miter;stroke-miterlimit:4;stroke-opacity:1;stroke-dasharray:none;stroke-dashoffset:0"
           id="path2822"
           sodipodi:cx="411.63718"
           sodipodi:cy="438.52335"
           sodipodi:rx="166.17009"
           sodipodi:ry="166.17009"
           d="m 245.46709,438.52334 c 0,-91.77321 74.39689,-166.17009 166.17009,-166.17008"
           transform="matrix(1.0831373,0,0,1.0831373,-15.867057,267.3737)"
           sodipodi:start="3.1415927"
           sodipodi:end="4.712389"
           sodipodi:open="true" />
        <path
           sodipodi:type="arc"
           style="fill:none;stroke:#000000;stroke-width:16.01302528;stroke-linecap:round;stroke-linejoin:miter;stroke-miterlimit:4;stroke-opacity:1;stroke-dasharray:none;stroke-dashoffset:0"
           id="path3598"
           sodipodi:cx="297.48993"
           sodipodi:cy="414.27966"
           sodipodi:rx="164.1498"
           sodipodi:ry="164.1498"
           d="m 133.34013,414.27966 c 1e-5,-90.65743 73.49238,-164.14979 164.1498,-164.14979"
           transform="matrix(1.276623,0,0,1.276623,49.996217,213.26195)"
           sodipodi:start="3.1415927"
           sodipodi:end="4.712389"
           sodipodi:open="true" />
        <path
           sodipodi:type="arc"
           style="fill:none;stroke:#000000;stroke-width:17.27353096;stroke-linecap:round;stroke-linejoin:miter;stroke-miterlimit:4;stroke-opacity:1;stroke-dasharray:none;stroke-dashoffset:0"
           id="path3600"
           sodipodi:cx="364.16"
           sodipodi:cy="414.27966"
           sodipodi:rx="204.55589"
           sodipodi:ry="204.55589"
           d="m 159.60411,414.27965 c 1e-5,-112.97309 91.5828,-204.55588 204.5559,-204.55588"
           transform="matrix(1.1720717,0,0,1.1720717,3.055447,256.67382)"
           sodipodi:start="3.1415927"
           sodipodi:end="4.712389"
           sodipodi:open="true" />
        <path
           sodipodi:type="arc"
           style="fill:none;stroke:#000000;stroke-width:20;stroke-linecap:round;stroke-linejoin:miter;stroke-miterlimit:4;stroke-opacity:1;stroke-dasharray:none;stroke-dashoffset:0"
           id="path3602"
           sodipodi:cx="470.73108"
           sodipodi:cy="471.3533"
           sodipodi:rx="119.198"
           sodipodi:ry="119.198"
           d="m 470.73108,352.1553 c 65.83124,10e-6 119.198,53.36677 119.198,119.198 0,65.83124 -53.36677,119.198 -119.198,119.198 -65.83124,0 -119.198,-53.36676 -119.198,-119.198 0,0 0,0 0,0"
           transform="matrix(1.3158099,0,0,1.3158099,-182.61082,129.73963)"
           sodipodi:start="4.712389"
           sodipodi:end="9.424778"
           sodipodi:open="true" />
      </g>
      <g
         id="g3668">
        <path
           sodipodi:type="arc"
           style="fill:#89a9e3;fill-opacity:1;stroke:#000000;stroke-width:15;stroke-linecap:round;stroke-linejoin:miter;stroke-miterlimit:4;stroke-opacity:1;stroke-dasharray:none;stroke-dashoffset:0"
           id="path3618"
           sodipodi:cx="240.16377"
           sodipodi:cy="373.11597"
           sodipodi:rx="25.506351"
           sodipodi:ry="25.506351"
           d="m 265.67012,373.11597 c 0,14.08677 -11.41958,25.50635 -25.50635,25.50635 -14.08677,0 -25.50635,-11.41958 -25.50635,-25.50635 0,-14.08677 11.41958,-25.50635 25.50635,-25.50635 14.08677,0 25.50635,11.41958 25.50635,25.50635 z"
           transform="translate(-34.850263,236.54687)" />
        <path
           transform="translate(111.36931,326.70299)"
           sodipodi:type="arc"
           style="fill:#89a9e3;fill-opacity:1;stroke:#000000;stroke-width:15;stroke-linecap:round;stroke-linejoin:miter;stroke-miterlimit:4;stroke-opacity:1;stroke-dasharray:none;stroke-dashoffset:0"
           id="path3618-6"
           sodipodi:cx="240.16377"
           sodipodi:cy="373.11597"
           sodipodi:rx="25.506351"
           sodipodi:ry="25.506351"
           d="m 265.67012,373.11597 c 0,14.08677 -11.41958,25.50635 -25.50635,25.50635 -14.08677,0 -25.50635,-11.41958 -25.50635,-25.50635 0,-14.08677 11.41958,-25.50635 25.50635,-25.50635 14.08677,0 25.50635,11.41958 25.50635,25.50635 z" />
        <path
           transform="translate(80.559661,412.56595)"
           sodipodi:type="arc"
           style="fill:#89a9e3;fill-opacity:1;stroke:#000000;stroke-width:15;stroke-linecap:round;stroke-linejoin:miter;stroke-miterlimit:4;stroke-opacity:1;stroke-dasharray:none;stroke-dashoffset:0"
           id="path3618-0"
           sodipodi:cx="240.16377"
           sodipodi:cy="373.11597"
           sodipodi:rx="25.506351"
           sodipodi:ry="25.506351"
           d="m 265.67012,373.11597 c 0,14.08677 -11.41958,25.50635 -25.50635,25.50635 -14.08677,0 -25.50635,-11.41958 -25.50635,-25.50635 0,-14.08677 11.41958,-25.50635 25.50635,-25.50635 14.08677,0 25.50635,11.41958 25.50635,25.50635 z" />
        <path
           transform="translate(-59.851543,353.9771)"
           sodipodi:type="arc"
           style="fill:#89a9e3;fill-opacity:1;stroke:#000000;stroke-width:15;stroke-linecap:round;stroke-linejoin:miter;stroke-miterlimit:4;stroke-opacity:1;stroke-dasharray:none;stroke-dashoffset:0"
           id="path3618-4"
           sodipodi:cx="240.16377"
           sodipodi:cy="373.11597"
           sodipodi:rx="25.506351"
           sodipodi:ry="25.506351"
           d="m 265.67012,373.11597 c 0,14.08677 -11.41958,25.50635 -25.50635,25.50635 -14.08677,0 -25.50635,-11.41958 -25.50635,-25.50635 0,-14.08677 11.41958,-25.50635 25.50635,-25.50635 14.08677,0 25.50635,11.41958 25.50635,25.50635 z" />
        <path
           style="fill:none;stroke:#000000;stroke-width:10;stroke-linecap:butt;stroke-linejoin:miter;stroke-miterlimit:4;stroke-opacity:1;stroke-dasharray:none"
           d="M 306.73632,456.08157 219.30062,322.72778"
           id="path3662"
           transform="translate(0,308.2677)"
           inkscape:connector-type="polyline"
           inkscape:connection-start="#path3618-0"
           inkscape:connection-end="#path3618"
           inkscape:connection-start-point="d4"
           inkscape:connection-end-point="d4"
           inkscape:connector-curvature="0" />
        <path
           style="fill:none;stroke:#000000;stroke-width:10;stroke-linecap:butt;stroke-linejoin:miter;stroke-miterlimit:4;stroke-opacity:1;stroke-dasharray:none"
           d="m 329.34027,453.40008 13.57598,-37.83469"
           id="path3664"
           transform="translate(0,308.2677)"
           inkscape:connector-type="polyline"
           inkscape:connection-start="#path3618-0"
           inkscape:connection-end="#path3618-6"
           inkscape:connection-start-point="d4"
           inkscape:connection-end-point="d4"
           inkscape:connector-curvature="0" />
        <path
           style="fill:none;stroke:#000000;stroke-width:10;stroke-linecap:butt;stroke-linejoin:miter;stroke-miterlimit:4;stroke-opacity:1;stroke-dasharray:none"
           d="M 297.17799,467.5895 203.85767,428.65009"
           id="path3666"
           transform="translate(0,308.2677)"
           inkscape:connector-type="polyline"
           inkscape:connection-start="#path3618-0"
           inkscape:connection-end="#path3618-4"
           inkscape:connection-start-point="d4"
           inkscape:connection-end-point="d4"
           inkscape:connector-curvature="0" />
      </g>
    </g>
  </g>
</svg>
