<?xml version="1.0" encoding="UTF-8" standalone="no"?>
<!-- Created with Inkscape (http://www.inkscape.org/) -->

<svg
   xmlns:dc="http://purl.org/dc/elements/1.1/"
   xmlns:cc="http://creativecommons.org/ns#"
   xmlns:rdf="http://www.w3.org/1999/02/22-rdf-syntax-ns#"
   xmlns:svg="http://www.w3.org/2000/svg"
   xmlns="http://www.w3.org/2000/svg"
   xmlns:xlink="http://www.w3.org/1999/xlink"
   xmlns:sodipodi="http://sodipodi.sourceforge.net/DTD/sodipodi-0.dtd"
   xmlns:inkscape="http://www.inkscape.org/namespaces/inkscape"
   width="1010"
   height="200"
   viewBox="0 0 602 107"
   id="svg3030"
   version="1.1"
   inkscape:version="0.48.4 r9943 custom"
   sodipodi:docname="proxy-pipeline.svg">
  <defs
     id="defs3032">
    <linearGradient
       id="linearGradient3801">
      <stop
         style="stop-color:#555c61;stop-opacity:1;"
         offset="0"
         id="stop3803" />
      <stop
         id="stop3807"
         offset="0.51282054"
         style="stop-color:#ffffff;stop-opacity:1;" />
      <stop
         style="stop-color:#555c61;stop-opacity:1;"
         offset="1"
         id="stop3805" />
    </linearGradient>
    <linearGradient
       id="linearGradient3795">
      <stop
         id="stop3797"
         offset="0"
         style="stop-color:#555c61;stop-opacity:1;" />
      <stop
         id="stop3799"
         offset="1"
         style="stop-color:#555c61;stop-opacity:0;" />
    </linearGradient>
    <linearGradient
       id="linearGradient3809">
      <stop
         style="stop-color:#555c61;stop-opacity:1;"
         offset="0"
         id="stop3811" />
      <stop
         style="stop-color:#555c61;stop-opacity:1;"
         offset="1"
         id="stop3813" />
    </linearGradient>
    <radialGradient
       inkscape:collect="always"
       xlink:href="#linearGradient3809"
       id="radialGradient3851"
       cx="0"
       cy="0"
       fx="0"
       fy="0"
       r="15"
       gradientUnits="userSpaceOnUse" />
    <linearGradient
       inkscape:collect="always"
       xlink:href="#linearGradient3801"
       id="linearGradient3793"
       x1="37.897228"
       y1="122.03016"
       x2="70.443169"
       y2="122.03016"
       gradientUnits="userSpaceOnUse"
       spreadMethod="reflect"
       gradientTransform="translate(15.210302,-54.087344)" />
    <linearGradient
       gradientTransform="matrix(1.0063006,0,0,1.0063006,239.75308,28.987865)"
       inkscape:collect="always"
       xlink:href="#linearGradient3834"
       id="linearGradient3848"
       x1="36.359375"
       y1="37.359375"
       x2="96.145859"
       y2="37.359375"
       gradientUnits="userSpaceOnUse" />
    <linearGradient
       id="linearGradient3834">
      <stop
         style="stop-color:#ffffff;stop-opacity:1;"
         offset="0"
         id="stop3836" />
      <stop
         style="stop-color:#d4d4d4;stop-opacity:1;"
         offset="1"
         id="stop3838" />
    </linearGradient>
  </defs>
  <sodipodi:namedview
     id="base"
     pagecolor="#ffffff"
     bordercolor="#666666"
     borderopacity="1.0"
     inkscape:pageopacity="0.0"
     inkscape:pageshadow="2"
     inkscape:zoom="1.28"
     inkscape:cx="404.57079"
     inkscape:cy="30.777901"
     inkscape:document-units="px"
     inkscape:current-layer="svg3030"
     showgrid="false"
     inkscape:window-width="1210"
     inkscape:window-height="695"
     inkscape:window-x="0"
     inkscape:window-y="23"
     inkscape:window-maximized="0"
     fit-margin-top="0"
     fit-margin-left="0"
     fit-margin-right="0"
     fit-margin-bottom="0"
     showguides="true"
     inkscape:guide-bbox="true">
    <sodipodi:guide
       orientation="1,0"
       position="600.875,568.75"
       id="guide3110" />
    <sodipodi:guide
       orientation="1,0"
       position="0.875,446.875"
       id="guide3112" />
  </sodipodi:namedview>
  <metadata
     id="metadata3035">
    <rdf:RDF>
      <cc:Work
         rdf:about="">
        <dc:format>image/svg+xml</dc:format>
        <dc:type
           rdf:resource="http://purl.org/dc/dcmitype/StillImage" />
        <dc:title />
      </cc:Work>
    </rdf:RDF>
  </metadata>
  <style
     id="style3018">

 </style>
  <g
     id="g3130"
     transform="translate(-199.125,6.4740658)">
    <path
       sodipodi:nodetypes="ssscccssssss"
       inkscape:connector-curvature="0"
       id="rect3779-5"
       d="m 217.70115,23.885058 39.82758,0 c 9.80644,0 17.70115,7.894713 17.70115,17.70115 l 0,9.956896 10.00006,9.956897 -10.00006,9.956896 0,9.956897 c 0,9.806437 -7.89471,17.701149 -17.70115,17.701149 l -39.82758,0 C 207.89471,99.114943 200,91.220231 200,81.413794 l 0,-39.827586 c 0,-9.806437 7.89471,-17.70115 17.70115,-17.70115 z"
       style="color:#000000;fill:#ffffff;fill-opacity:1;fill-rule:nonzero;stroke:#555c61;stroke-width:1.7701149;stroke-opacity:1;marker:none;visibility:visible;display:inline;overflow:visible;enable-background:accumulate" />
    <circle
       transform="translate(237.58083,61.502959)"
       d="M 15,0 C 15,8.2842712 8.2842712,15 0,15 -8.2842712,15 -15,8.2842712 -15,0 c 0,-8.2842712 6.7157288,-15 15,-15 8.2842712,0 15,6.7157288 15,15 z"
       sodipodi:ry="15"
       sodipodi:rx="15"
       sodipodi:cy="0"
       sodipodi:cx="0"
       style="color:#000000;fill:#555c61;fill-opacity:1;fill-rule:nonzero;stroke:none;stroke-width:5;marker:none;visibility:visible;display:inline;overflow:visible;enable-background:accumulate"
       r="15"
       id="source"
       cy="0"
       cx="0" />
    <path
       sodipodi:open="true"
       sodipodi:end="7.06"
       sodipodi:start="5.49"
       transform="translate(-91.11335,15.088397)"
       d="m 346.23366,28.599772 c 9.8333,9.681331 9.96277,25.499071 0.28928,35.340075"
       sodipodi:ry="25"
       sodipodi:rx="25"
       sodipodi:cy="46.414562"
       sodipodi:cx="328.69418"
       id="source-arc"
       style="color:#000000;fill:none;stroke:#555c61;stroke-width:5;stroke-linecap:butt;stroke-linejoin:round;stroke-miterlimit:4;stroke-opacity:1;stroke-dasharray:none;stroke-dashoffset:0;marker:none;visibility:visible;display:inline;overflow:visible;enable-background:accumulate"
       sodipodi:type="arc" />
  </g>
  <path
     d="m 63.44602,67.942816 234.45436,0"
     id="path3301-8"
     style="fill:none;stroke:#555c61;stroke-width:5;stroke-linecap:butt;stroke-linejoin:miter;stroke-miterlimit:4;stroke-opacity:1;stroke-dasharray:none"
     inkscape:connector-curvature="0"
     sodipodi:nodetypes="cc" />
  <g
     id="qsdqsdqsdqsd"
     transform="translate(237.42021,6.4740653)">
    <path
       sodipodi:nodetypes="ssscccsssscccss"
       inkscape:connector-curvature="0"
       id="rect3779"
       d="m 42.054957,23.885058 39.827586,0 c 9.806437,0 17.701149,7.894713 17.701149,17.70115 l 0,9.956896 10.000058,9.956897 -10.000058,9.956896 0,9.956897 c 0,9.806437 -7.894712,17.701149 -17.701149,17.701149 l -39.827586,0 c -9.806437,0 -17.70115,-7.894712 -17.70115,-17.701149 l 0,-9.956897 L 34.35375,61.5 l -9.999943,-9.956896 0,-9.956896 c 0,-9.806437 7.894713,-17.70115 17.70115,-17.70115 z"
       style="color:#000000;fill:#ffffff;fill-opacity:1;fill-rule:nonzero;stroke:#555c61;stroke-width:1.7701149;stroke-opacity:1;marker:none;visibility:visible;display:inline;overflow:visible;enable-background:accumulate" />
    <path
       sodipodi:nodetypes="cc"
       inkscape:connector-curvature="0"
       style="fill:none;stroke:#555c61;stroke-width:5;stroke-linecap:butt;stroke-linejoin:miter;stroke-miterlimit:4;stroke-opacity:1;stroke-dasharray:none"
       id="path3301"
       d="m 86.92483,61.46875 238.87378,0" />
    <path
       sodipodi:open="true"
       sodipodi:end="7.06"
       sodipodi:start="5.49"
       transform="translate(-266.75954,15.088397)"
       d="m 346.23366,28.599772 c 9.8333,9.681331 9.96277,25.499071 0.28928,35.340075"
       sodipodi:ry="25"
       sodipodi:rx="25"
       sodipodi:cy="46.414562"
       sodipodi:cx="328.69418"
       id="pipe-arc"
       style="color:#000000;fill:none;stroke:#555c61;stroke-width:5;stroke-linecap:butt;stroke-linejoin:round;stroke-miterlimit:4;stroke-opacity:1;stroke-dasharray:none;stroke-dashoffset:0;marker:none;visibility:visible;display:inline;overflow:visible;enable-background:accumulate"
       sodipodi:type="arc" />
    <path
       d="m -0.01525,61.46875 50.984,0"
       id="path5020"
       style="fill:none;stroke:#555c61;stroke-width:5;stroke-linecap:butt;stroke-linejoin:miter;stroke-miterlimit:4;stroke-opacity:1;stroke-dasharray:none"
       inkscape:connector-curvature="0"
       sodipodi:nodetypes="cc" />
    <circle
       transform="translate(61.93464,61.502959)"
       d="M 15,0 C 15,8.2842712 8.2842712,15 0,15 -8.2842712,15 -15,8.2842712 -15,0 c 0,-8.2842712 6.7157288,-15 15,-15 8.2842712,0 15,6.7157288 15,15 z"
       sodipodi:ry="15"
       sodipodi:rx="15"
       sodipodi:cy="0"
       sodipodi:cx="0"
       style="color:#000000;fill:#555c61;fill-opacity:1;fill-rule:nonzero;stroke:none;stroke-width:5;marker:none;visibility:visible;display:inline;overflow:visible;"
       r="15"
       id="pipe"
       cy="0"
       cx="0" />
  </g>
  <g
     transform="translate(499.76,24.474066)"
     id="g3034">
    <path
       style="color:#000000;fill:#ffffff;fill-opacity:1;fill-rule:nonzero;stroke:#555c61;stroke-width:1.7701149;stroke-opacity:1;marker:none;visibility:visible;display:inline;overflow:visible;enable-background:accumulate"
       d="m 43.586207,5.8850572 39.827583,0 c 9.80644,0 17.70115,7.8947138 17.70115,17.7011508 l 0,9.956896 6e-5,9.956897 -6e-5,9.956896 0,9.956897 c 0,9.806437 -7.89471,17.701149 -17.70115,17.701149 l -39.827583,0 c -9.806437,0 -17.70115,-7.894712 -17.70115,-17.701149 l 0,-9.956897 L 35.885,43.5 l -9.999943,-9.956896 0,-9.956896 c 0,-9.806437 7.894713,-17.7011508 17.70115,-17.7011508 z"
       id="rect3779-7"
       inkscape:connector-curvature="0"
       sodipodi:nodetypes="ssscccsssscccss" />
    <path
       d="m 4.5,43.469 50,0"
       id="path3301-3"
       style="fill:none;stroke:#555c61;stroke-width:5;stroke-linecap:butt;stroke-linejoin:miter;stroke-miterlimit:4;stroke-opacity:1;stroke-dasharray:none;marker-end:none"
       inkscape:connector-curvature="0"
       sodipodi:nodetypes="cc" />
    <circle
       class="test"
       cx="0"
       cy="0"
       id="sink"
       r="15"
       style="color:#000000;fill:#555c61;fill-opacity:1;fill-rule:nonzero;stroke:none;stroke-width:5;marker:none;visibility:visible;display:inline;overflow:visible;enable-background:accumulate"
       sodipodi:cx="0"
       sodipodi:cy="0"
       sodipodi:rx="15"
       sodipodi:ry="15"
       d="M 15,0 C 15,8.2842712 8.2842712,15 0,15 -8.2842712,15 -15,8.2842712 -15,0 c 0,-8.2842712 6.7157288,-15 15,-15 8.2842712,0 15,6.7157288 15,15 z"
       transform="translate(63.46589,43.502959)" />
  </g>
  <text
     xml:space="preserve"
     style="font-size:22px;font-style:normal;font-variant:normal;font-weight:normal;font-stretch:normal;text-indent:0;text-align:center;text-decoration:none;line-height:155.99999428%;letter-spacing:0px;word-spacing:0px;text-transform:none;direction:ltr;block-progression:tb;writing-mode:lr-tb;text-anchor:middle;baseline-shift:baseline;color:#000000;fill:#000000;fill-opacity:1;fill-rule:nonzero;stroke:none;stroke-width:1px;marker:none;visibility:visible;display:inline;overflow:visible;enable-background:accumulate;font-family:Sans-Serif;-inkscape-font-specification:Sans-Serif"
     x="38.418671"
     y="16.714844"
     id="text3114"
     sodipodi:linespacing="155.99999%"><tspan
       sodipodi:role="line"
       id="tspan3116"
       x="38.418671"
       y="16.714844">Graph</tspan></text>
  <text
     xml:space="preserve"
     style="font-size:22px;font-style:normal;font-variant:normal;font-weight:normal;font-stretch:normal;text-indent:0;text-align:center;text-decoration:none;line-height:155.99999428%;letter-spacing:0px;word-spacing:0px;text-transform:none;direction:ltr;block-progression:tb;writing-mode:lr-tb;text-anchor:middle;baseline-shift:baseline;color:#000000;fill:#000000;fill-opacity:1;fill-rule:nonzero;stroke:none;stroke-width:1px;marker:none;visibility:visible;display:inline;overflow:visible;enable-background:accumulate;font-family:Sans-Serif;-inkscape-font-specification:Sans-Serif"
     x="299.52673"
     y="16.714844"
     id="text3118"
     sodipodi:linespacing="155.99999%"><tspan
       sodipodi:role="line"
       id="tspan3120"
       x="299.52673"
       y="16.714844">ProxyPipe</tspan></text>
  <text
     xml:space="preserve"
     style="font-size:22px;font-style:normal;font-variant:normal;font-weight:normal;font-stretch:normal;text-indent:0;text-align:center;text-decoration:none;line-height:155.99999428%;letter-spacing:0px;word-spacing:0px;text-transform:none;direction:ltr;block-progression:tb;writing-mode:lr-tb;text-anchor:middle;baseline-shift:baseline;color:#000000;fill:#000000;fill-opacity:1;fill-rule:nonzero;stroke:none;stroke-width:1px;marker:none;visibility:visible;display:inline;overflow:visible;enable-background:accumulate;font-family:Sans-Serif;-inkscape-font-specification:Sans-Serif"
     x="563.10236"
     y="16.714844"
     id="text3122"
     sodipodi:linespacing="155.99999%"><tspan
       sodipodi:role="line"
       id="tspan3124"
       x="563.10236"
       y="16.714844">Viewer</tspan></text>
  <path
     sodipodi:nodetypes="cc"
     inkscape:connector-curvature="0"
     style="opacity:0;fill:none;stroke:url(#linearGradient3793);stroke-width:5;stroke-linecap:butt;stroke-linejoin:miter;stroke-miterlimit:4;stroke-opacity:1;stroke-dasharray:none"
     id="token"
     d="m 55.607528,67.855506 27.545937,0.17462" />
  <path
     inkscape:connector-curvature="0"
     style="color:#000000;fill:url(#linearGradient3848);fill-opacity:1;stroke:#6f6f6f;stroke-width:0.73102301;stroke-linecap:butt;stroke-linejoin:round;stroke-miterlimit:4;stroke-opacity:1;stroke-dashoffset:0;marker:none;visibility:visible;display:inline;overflow:visible;enable-background:accumulate"
     d="m 297.33234,39.554025 c -4.40407,0 -7.95606,3.7311 -7.95606,8.30198 0,1.09599 0.19325,2.12447 0.56604,3.0818 -0.83235,-0.31584 -1.7299,-0.47171 -2.67298,-0.47171 -4.17008,0 -7.54726,3.37718 -7.54726,7.54726 0,1.63849 0.52849,3.16503 1.41511,4.40256 -2.89227,2.14629 -4.77993,5.58721 -4.77993,9.46552 0,6.50532 5.25582,11.76113 11.76114,11.76113 0.84773,0 1.68736,-0.11283 2.48431,-0.28302 -0.0295,0.28202 -0.0629,0.5907 -0.0629,0.88052 0,4.50369 3.6725,8.14474 8.17619,8.14474 2.83396,0 5.29962,-1.42234 6.76108,-3.61639 2.14179,2.93917 5.61328,4.84282 9.52842,4.84282 6.50532,0 11.79258,-5.28727 11.79258,-11.79259 0,-1.27358 -0.22357,-2.499 -0.59749,-3.64783 5.70336,-0.1544 10.31458,-4.79407 10.31458,-10.53471 0,-5.83811 -4.75949,-10.56616 -10.5976,-10.56616 -0.67883,0 -1.33793,0.0664 -1.98116,0.18868 0.0812,-0.55831 0.15724,-1.14874 0.15724,-1.72958 0,-6.50532 -5.28726,-11.76113 -11.79259,-11.76113 -2.68311,0 -5.15799,0.91078 -7.13844,2.42141 -0.74358,-3.77138 -3.97672,-6.6353 -7.83029,-6.6353 z"
     id="path3019" />
</svg>
