<?xml version="1.0" encoding="UTF-8" standalone="no"?>
<!-- Created with Inkscape (http://www.inkscape.org/) -->

<svg
   xmlns:dc="http://purl.org/dc/elements/1.1/"
   xmlns:cc="http://creativecommons.org/ns#"
   xmlns:rdf="http://www.w3.org/1999/02/22-rdf-syntax-ns#"
   xmlns:svg="http://www.w3.org/2000/svg"
   xmlns="http://www.w3.org/2000/svg"
   xmlns:sodipodi="http://sodipodi.sourceforge.net/DTD/sodipodi-0.dtd"
   xmlns:inkscape="http://www.inkscape.org/namespaces/inkscape"
   width="108.46875"
   height="87"
   id="svg3030"
   version="1.1"
   inkscape:version="0.48.4 r9943 custom"
   sodipodi:docname="sink.svg">
  <defs
     id="defs3032">
    <marker
       inkscape:stockid="Arrow2Send"
       orient="auto"
       refY="0.0"
       refX="0.0"
       id="Arrow2Send"
       style="overflow:visible;">
      <path
         id="path3848"
         style="fill-rule:evenodd;stroke-width:0.62500000;stroke-linejoin:round;"
         d="M 8.7185878,4.0337352 L -2.2072895,0.016013256 L 8.7185884,-4.0017078 C 6.9730900,-1.6296469 6.9831476,1.6157441 8.7185878,4.0337352 z "
         transform="scale(0.3) rotate(180) translate(-2.3,0)" />
    </marker>
    <marker
       inkscape:stockid="Arrow1Lend"
       orient="auto"
       refY="0.0"
       refX="0.0"
       id="Arrow1Lend"
       style="overflow:visible;">
      <path
         id="path3818"
         d="M 0.0,0.0 L 5.0,-5.0 L -12.5,0.0 L 5.0,5.0 L 0.0,0.0 z "
         style="fill-rule:evenodd;stroke:#000000;stroke-width:1.0pt;"
         transform="scale(0.8) rotate(180) translate(12.5,0)" />
    </marker>
  </defs>
  <sodipodi:namedview
     id="base"
     pagecolor="#ffffff"
     bordercolor="#666666"
     borderopacity="1.0"
     inkscape:pageopacity="0.0"
     inkscape:pageshadow="2"
     inkscape:zoom="2.56"
     inkscape:cx="98.547429"
     inkscape:cy="43.053564"
     inkscape:document-units="px"
     inkscape:current-layer="g3786"
     showgrid="false"
     inkscape:window-width="1210"
     inkscape:window-height="695"
     inkscape:window-x="0"
     inkscape:window-y="23"
     inkscape:window-maximized="0"
     fit-margin-top="0"
     fit-margin-left="0"
     fit-margin-right="0"
     fit-margin-bottom="0" />
  <metadata
     id="metadata3035">
    <rdf:RDF>
      <cc:Work
         rdf:about="">
        <dc:format>image/svg+xml</dc:format>
        <dc:type
           rdf:resource="http://purl.org/dc/dcmitype/StillImage" />
        <dc:title />
      </cc:Work>
    </rdf:RDF>
  </metadata>
  <g
     id="g3786">
    <g
       id="g3034">
      <path
         style="color:#000000;fill:#ffffff;fill-opacity:1;fill-rule:nonzero;stroke:#555c61;stroke-width:1.7701149;stroke-opacity:1;marker:none;visibility:visible;display:inline;overflow:visible;enable-background:accumulate"
         d="m 43.586207,5.8850572 39.827583,0 c 9.80644,0 17.70115,7.8947138 17.70115,17.7011508 l 0,9.956896 6e-5,9.956897 -6e-5,9.956896 0,9.956897 c 0,9.806437 -7.89471,17.701149 -17.70115,17.701149 l -39.827583,0 c -9.806437,0 -17.70115,-7.894712 -17.70115,-17.701149 l 0,-9.956897 L 35.885,43.5 l -9.999943,-9.956896 0,-9.956896 c 0,-9.806437 7.894713,-17.7011508 17.70115,-17.7011508 z"
         id="rect3779"
         inkscape:connector-curvature="0"
         sodipodi:nodetypes="ssscccsssscccss" />
      <path
         d="m 4.5,43.469 50,0"
         id="path3301"
         style="fill:none;stroke:#555c61;stroke-width:5;stroke-linecap:butt;stroke-linejoin:miter;stroke-miterlimit:4;stroke-opacity:1;stroke-dasharray:none;marker-end:none"
         inkscape:connector-curvature="0"
         sodipodi:nodetypes="cc" />
      <circle
         cx="0"
         cy="0"
         id="circle3295"
         r="15"
         style="color:#000000;fill:#555c61;fill-opacity:1;fill-rule:nonzero;stroke:none;stroke-width:5;marker:none;visibility:visible;display:inline;overflow:visible;enable-background:accumulate"
         sodipodi:cx="0"
         sodipodi:cy="0"
         sodipodi:rx="15"
         sodipodi:ry="15"
         d="m 80.380999,99.818001 c 0,11.405229 -9.245768,20.650999 -20.650999,20.650999 -11.405232,0 -20.651,-9.24577 -20.651,-20.650999 0,-11.405232 9.245768,-20.650999 20.651,-20.650999 11.405231,0 20.650999,9.245767 20.650999,20.650999 z"
         transform="translate(63.46589,43.502959)" />
    </g>
  </g>
</svg>
