<svg xmlns="http://www.w3.org/2000/svg" width="1000" height="500" id="svg2"><g id="layer1" transform="translate(0 -552.362)"><g id="g3702" transform="translate(10 119.755)"><g style="font-size:400px;font-style:normal;font-variant:normal;font-weight:900;font-stretch:normal;text-align:start;line-height:125%;writing-mode:lr-tb;text-anchor:start;fill:#000;fill-opacity:1;stroke:none;font-family:Exo;-inkscape-font-specification:Exo Heavy" id="text3610"><path d="M454.847 675.16c0 82.399 12.4 155.2 95.2 150 32-2 38.4-6.801 49.6-21.6l22 19.6h54.8v-174.4c-9.6-.8-18.8-1.2-27.2-1.2-26.4 0-52 .4-70 10v48h19.6v30s-4 18.4-28.8 18.4c-35.2 0-37.6-12.401-37.6-78 0-65.2 6.4-83.2 43.6-83.2 50.8 0 95.2 8.8 97.6 8.8v-59.6c-54-14.8-58-14.8-121.6-14.8-79.6 0-97.2 58.8-97.2 148" id="path3678"/></g><g style="font-size:400px;font-style:normal;font-variant:normal;font-weight:700;font-stretch:normal;line-height:125%;fill:#000;fill-opacity:1;stroke:none;font-family:Arial Black;-inkscape-font-specification:'Arial Black, Bold'" id="text3614"><path d="M666.049 631.56c0 18.799 3.2 84.8 79.2 84.8h36c17.6 0 21.2 6 21.2 17.6v6.4c0 11.999-6.4 16.4-23.6 16.4-37.2 0-87.6-2.8-103.6-4.4v60.4c40 13.599 48.8 13.6 123.6 13.6 39.6 0 81.2-15.201 81.2-89.6v-13.2c0-32-14-84.8-74.8-84.8h-37.6c-21.6 0-24-6.801-24-19.2v-4.4c0-16.8 8-17.6 29.6-17.6 26.4 0 70.4 1.2 96 4v-60.4c-29.6-10.8-64.8-16.8-124-13.2-44.8 2.799-79.2 26.8-79.2 79.2v24.4" style="font-weight:900;text-align:start;line-height:125%;writing-mode:lr-tb;text-anchor:start;font-family:Exo;-inkscape-font-specification:Exo Heavy" id="path3675"/></g></g><g id="g3677" transform="translate(10 134)"><g transform="translate(-169.706 -40.406)" id="g3604"><path style="fill:none;stroke:#000;stroke-width:18.47872925;stroke-linecap:round;stroke-linejoin:miter;stroke-miterlimit:4;stroke-opacity:1;stroke-dasharray:none;stroke-dashoffset:0" id="path2822" d="M245.467 438.523c0-91.773 74.397-166.17 166.17-166.17" transform="matrix(1.08314 0 0 1.08314 -15.867 267.374)"/><path style="fill:none;stroke:#000;stroke-width:16.01302528;stroke-linecap:round;stroke-linejoin:miter;stroke-miterlimit:4;stroke-opacity:1;stroke-dasharray:none;stroke-dashoffset:0" id="path3598" d="M133.34 414.28c0-90.658 73.493-164.15 164.15-164.15" transform="matrix(1.27662 0 0 1.27662 49.996 213.262)"/><path style="fill:none;stroke:#000;stroke-width:17.27353096;stroke-linecap:round;stroke-linejoin:miter;stroke-miterlimit:4;stroke-opacity:1;stroke-dasharray:none;stroke-dashoffset:0" id="path3600" d="M159.604 414.28c0-112.973 91.583-204.556 204.556-204.556" transform="translate(3.055 256.674) scale(1.17207)"/><path style="fill:none;stroke:#000;stroke-width:20;stroke-linecap:round;stroke-linejoin:miter;stroke-miterlimit:4;stroke-opacity:1;stroke-dasharray:none;stroke-dashoffset:0" id="path3602" d="M470.731 352.155c65.831 0 119.198 53.367 119.198 119.198 0 65.832-53.367 119.198-119.198 119.198-65.831 0-119.198-53.366-119.198-119.198" transform="matrix(1.31581 0 0 1.31581 -182.61 129.74)"/></g><g id="g3668"><path style="fill:#89a9e3;fill-opacity:1;stroke:#000;stroke-width:15;stroke-linecap:round;stroke-linejoin:miter;stroke-miterlimit:4;stroke-opacity:1;stroke-dasharray:none;stroke-dashoffset:0" id="path3618" d="M265.67 373.116c0 14.087-11.42 25.506-25.506 25.506-14.087 0-25.507-11.42-25.507-25.506 0-14.087 11.42-25.506 25.507-25.506 14.087 0 25.506 11.42 25.506 25.506z" transform="translate(-34.85 236.547)"/><path transform="translate(111.37 326.703)" style="fill:#89a9e3;fill-opacity:1;stroke:#000;stroke-width:15;stroke-linecap:round;stroke-linejoin:miter;stroke-miterlimit:4;stroke-opacity:1;stroke-dasharray:none;stroke-dashoffset:0" id="path3618-6" d="M265.67 373.116c0 14.087-11.42 25.506-25.506 25.506-14.087 0-25.507-11.42-25.507-25.506 0-14.087 11.42-25.506 25.507-25.506 14.087 0 25.506 11.42 25.506 25.506z"/><path transform="translate(80.56 412.566)" style="fill:#89a9e3;fill-opacity:1;stroke:#000;stroke-width:15;stroke-linecap:round;stroke-linejoin:miter;stroke-miterlimit:4;stroke-opacity:1;stroke-dasharray:none;stroke-dashoffset:0" id="path3618-0" d="M265.67 373.116c0 14.087-11.42 25.506-25.506 25.506-14.087 0-25.507-11.42-25.507-25.506 0-14.087 11.42-25.506 25.507-25.506 14.087 0 25.506 11.42 25.506 25.506z"/><path transform="translate(-59.852 353.977)" style="fill:#89a9e3;fill-opacity:1;stroke:#000;stroke-width:15;stroke-linecap:round;stroke-linejoin:miter;stroke-miterlimit:4;stroke-opacity:1;stroke-dasharray:none;stroke-dashoffset:0" id="path3618-4" d="M265.67 373.116c0 14.087-11.42 25.506-25.506 25.506-14.087 0-25.507-11.42-25.507-25.506 0-14.087 11.42-25.506 25.507-25.506 14.087 0 25.506 11.42 25.506 25.506z"/><path style="fill:none;stroke:#000;stroke-width:10;stroke-linecap:butt;stroke-linejoin:miter;stroke-miterlimit:4;stroke-opacity:1;stroke-dasharray:none" d="M306.736 456.082l-87.435-133.354" id="path3662" transform="translate(0 308.268)"/><path style="fill:none;stroke:#000;stroke-width:10;stroke-linecap:butt;stroke-linejoin:miter;stroke-miterlimit:4;stroke-opacity:1;stroke-dasharray:none" d="M329.34 453.4l13.576-37.835" id="path3664" transform="translate(0 308.268)"/><path style="fill:none;stroke:#000;stroke-width:10;stroke-linecap:butt;stroke-linejoin:miter;stroke-miterlimit:4;stroke-opacity:1;stroke-dasharray:none" d="M297.178 467.59l-93.32-38.94" id="path3666" transform="translate(0 308.268)"/></g></g></g></svg>