<svg xmlns="http://www.w3.org/2000/svg" xmlns:xlink="http://www.w3.org/1999/xlink" width="1576.711" height="390.975" viewBox="0 0 939.782 209.172" id="svg3030"><defs id="defs3032"><marker orient="auto" id="TriangleOutL" style="overflow:visible"><path id="path4402" d="M5.77 0l-8.65 5V-5l8.65 5z" style="fill-rule:evenodd;stroke:#000;stroke-width:1pt" transform="scale(.8)"/></marker><linearGradient id="linearGradient3801"><stop style="stop-color:#555c61;stop-opacity:1" offset="0" id="stop3803"/><stop id="stop3807" offset=".513" style="stop-color:#fff;stop-opacity:1"/><stop style="stop-color:#555c61;stop-opacity:1" offset="1" id="stop3805"/></linearGradient><linearGradient id="linearGradient3795"><stop id="stop3797" offset="0" style="stop-color:#555c61;stop-opacity:1"/><stop id="stop3799" offset="1" style="stop-color:#555c61;stop-opacity:0"/></linearGradient><linearGradient id="linearGradient3809"><stop style="stop-color:#555c61;stop-opacity:1" offset="0" id="stop3811"/><stop style="stop-color:#555c61;stop-opacity:1" offset="1" id="stop3813"/></linearGradient><radialGradient xlink:href="#linearGradient3809" id="radialGradient3851" cx="0" cy="0" fx="0" fy="0" r="15" gradientUnits="userSpaceOnUse"/><linearGradient xlink:href="#linearGradient3801" id="linearGradient3793" x1="37.897" y1="122.03" x2="70.443" y2="122.03" gradientUnits="userSpaceOnUse" spreadMethod="reflect" gradientTransform="translate(190.423 79.836)"/><linearGradient id="linearGradient3834"><stop style="stop-color:#fff;stop-opacity:1" offset="0" id="stop3836"/><stop style="stop-color:#d4d4d4;stop-opacity:1" offset="1" id="stop3838"/></linearGradient><linearGradient xlink:href="#linearGradient3834" id="linearGradient4086" gradientUnits="userSpaceOnUse" gradientTransform="translate(-52.63 274.81) scale(1.0063)" x1="36.359" y1="37.359" x2="96.146" y2="37.359"/><linearGradient xlink:href="#linearGradient3801" id="linearGradient6725" gradientUnits="userSpaceOnUse" gradientTransform="translate(191.615 -66.79)" spreadMethod="reflect" x1="37.897" y1="122.03" x2="70.443" y2="122.03"/><linearGradient xlink:href="#linearGradient3834" id="linearGradient7077" gradientUnits="userSpaceOnUse" gradientTransform="translate(307.303 16.576) scale(1.0063)" x1="36.359" y1="37.359" x2="96.146" y2="37.359"/><linearGradient xlink:href="#linearGradient3834" id="linearGradient7081" gradientUnits="userSpaceOnUse" gradientTransform="translate(632.74 16.576) scale(1.0063)" x1="36.359" y1="37.359" x2="96.146" y2="37.359"/><linearGradient xlink:href="#linearGradient3834" id="linearGradient7085" gradientUnits="userSpaceOnUse" gradientTransform="translate(624.396 144.128) scale(1.0063)" x1="36.359" y1="37.359" x2="96.146" y2="37.359"/></defs><style id="style3018"/><g id="g6933" transform="translate(316.063 -6.228)"><path style="color:#000;fill:#fff;fill-opacity:1;fill-rule:nonzero;stroke:#555c61;stroke-width:1.7701149;stroke-opacity:1;marker:none;visibility:visible;display:inline;overflow:visible;enable-background:accumulate" d="M32.518 23.885h39.828a17.662 17.662 0 0 1 17.701 17.701v9.957l10 9.957-10 9.957v9.957a17.662 17.662 0 0 1-17.701 17.7H32.518a17.662 17.662 0 0 1-17.7-17.7v-9.957l10-9.957-10-9.957v-9.957a17.662 17.662 0 0 1 17.7-17.7z" id="path6935"/><path d="M-26.938 61.469h77.485" id="path6937" style="fill:none;stroke:#555c61;stroke-width:4.96423101;stroke-linecap:square;stroke-linejoin:miter;stroke-miterlimit:4;stroke-opacity:1;stroke-dasharray:none"/><path style="color:#000;fill:none;stroke:#555c61;stroke-width:5;stroke-linecap:butt;stroke-linejoin:round;stroke-miterlimit:4;stroke-opacity:1;stroke-dasharray:none;stroke-dashoffset:0;marker:none;visibility:visible;display:inline;overflow:visible;enable-background:accumulate" id="path6939" d="M346.234 28.6c9.833 9.681 9.962 25.499.289 35.34" transform="translate(-278.68 15.088)"/><circle id="circle6941" r="15" style="color:#000;fill:#555c61;fill-opacity:1;fill-rule:nonzero;stroke:none;stroke-width:5;marker:none;visibility:visible;display:inline;overflow:visible" transform="translate(52.398 61.503)"/><path style="fill:none;stroke:#555c61;stroke-width:4.96423101;stroke-linecap:square;stroke-linejoin:miter;stroke-miterlimit:4;stroke-opacity:1;stroke-dasharray:none" id="path6943" d="M77.512 61.469h54.618"/></g><path style="opacity:0;fill:none;stroke:url(#linearGradient3793);stroke-width:5;stroke-linecap:butt;stroke-linejoin:miter;stroke-miterlimit:4;stroke-opacity:1;stroke-dasharray:none" id="token" d="M230.82 201.78l27.546.174"/><path id="path6348" d="M29.583 405.108h6.519" style="fill:none;stroke:#000;stroke-width:2.38415837;stroke-linecap:butt;stroke-linejoin:miter;stroke-miterlimit:4;stroke-opacity:1;stroke-dasharray:none;marker-start:url(#TriangleOutL);marker-mid:none"/><path style="color:#000;fill:url(#linearGradient4086);fill-opacity:1;stroke:#6f6f6f;stroke-width:.73102301;stroke-linecap:butt;stroke-linejoin:round;stroke-miterlimit:4;stroke-opacity:1;stroke-dashoffset:0;marker:none;visibility:visible;display:inline;overflow:visible;enable-background:accumulate" d="M4.948 285.376c-4.404 0-7.956 3.731-7.956 8.302 0 1.096.194 2.125.566 3.082a7.496 7.496 0 0 0-2.673-.472 7.545 7.545 0 0 0-7.547 7.548c0 1.638.529 3.165 1.415 4.402-2.892 2.146-4.78 5.587-4.78 9.466a11.749 11.749 0 0 0 11.761 11.76c.848 0 1.688-.112 2.485-.282-.03.282-.063.59-.063.88 0 4.504 3.672 8.145 8.176 8.145 2.834 0 5.3-1.422 6.761-3.616a11.762 11.762 0 0 0 9.529 4.843c6.505 0 11.792-5.288 11.792-11.793 0-1.274-.223-2.5-.597-3.648 5.703-.154 10.314-4.794 10.314-10.535 0-5.838-4.76-10.566-10.597-10.566-.68 0-1.338.067-1.981.189.08-.558.157-1.149.157-1.73 0-6.505-5.288-11.76-11.793-11.76-2.683 0-5.158.91-7.138 2.42-.744-3.77-3.977-6.635-7.83-6.635z" id="path3019"/><text id="text6428" y="4.013" x="693.692" style="font-size:22px;font-style:normal;font-variant:normal;font-weight:400;font-stretch:normal;text-indent:0;text-align:center;text-decoration:none;line-height:155.99999428%;letter-spacing:0;word-spacing:0;text-transform:none;direction:ltr;block-progression:tb;writing-mode:lr-tb;text-anchor:middle;baseline-shift:baseline;color:#000;fill:#000;fill-opacity:1;fill-rule:nonzero;stroke:none;stroke-width:1px;marker:none;visibility:visible;display:inline;overflow:visible;enable-background:accumulate;font-family:Sans-Serif;-inkscape-font-specification:Sans-Serif"><tspan y="4.013" x="693.692" id="tspan6430">ProxyPipe</tspan></text><text id="text6432" y="6.146" x="530.796" style="font-size:22px;font-style:normal;font-variant:normal;font-weight:400;font-stretch:normal;text-indent:0;text-align:center;text-decoration:none;line-height:155.99999428%;letter-spacing:0;word-spacing:0;text-transform:none;direction:ltr;block-progression:tb;writing-mode:lr-tb;text-anchor:middle;baseline-shift:baseline;color:#000;fill:#000;fill-opacity:1;fill-rule:nonzero;stroke:none;stroke-width:1px;marker:none;visibility:visible;display:inline;overflow:visible;enable-background:accumulate;font-family:Sans-Serif;-inkscape-font-specification:Sans-Serif"><tspan y="6.146" x="530.796" id="tspan6434">Viewer</tspan></text><path style="fill:none;stroke:#555c61;stroke-width:5;stroke-linecap:square;stroke-linejoin:miter;stroke-miterlimit:4;stroke-opacity:1;stroke-dasharray:none" id="path6568" d="M937.04 178.196V56.008"/><text style="font-size:22px;font-style:normal;font-variant:normal;font-weight:400;font-stretch:normal;text-indent:0;text-align:center;text-decoration:none;line-height:155.99999428%;letter-spacing:0;word-spacing:0;text-transform:none;direction:ltr;block-progression:tb;writing-mode:lr-tb;text-anchor:middle;baseline-shift:baseline;color:#000;fill:#000;fill-opacity:1;fill-rule:nonzero;stroke:none;stroke-width:1px;marker:none;visibility:visible;display:inline;overflow:visible;enable-background:accumulate;font-family:Sans-Serif;-inkscape-font-specification:Sans-Serif" x="856.69" y="3.675" id="text6656"><tspan id="tspan6658" x="856.69" y="3.675">Layout</tspan></text><path id="path6524" d="M-18.29 400.499h-6.52" style="fill:none;stroke:#000;stroke-width:2.38415837;stroke-linecap:butt;stroke-linejoin:miter;stroke-miterlimit:4;stroke-opacity:1;stroke-dasharray:none;marker-start:url(#TriangleOutL);marker-mid:none"/><path style="fill:none;stroke:#000;stroke-width:2.38415837;stroke-linecap:butt;stroke-linejoin:miter;stroke-miterlimit:4;stroke-opacity:1;stroke-dasharray:none;marker-start:url(#TriangleOutL);marker-mid:none" d="M5.713 373.95v-6.52" id="path6346"/><path id="path6660" d="M4.084 425.072v6.519" style="fill:none;stroke:#000;stroke-width:2.38415837;stroke-linecap:butt;stroke-linejoin:miter;stroke-miterlimit:4;stroke-opacity:1;stroke-dasharray:none;marker-start:url(#TriangleOutL);marker-mid:none"/><g id="g6665" transform="translate(-25.03 -141.59)"><g id="g6677" transform="translate(35.762)"><text style="font-size:22px;font-style:normal;font-variant:normal;font-weight:400;font-stretch:normal;text-indent:0;text-align:center;text-decoration:none;line-height:155.99999428%;letter-spacing:0;word-spacing:0;text-transform:none;direction:ltr;block-progression:tb;writing-mode:lr-tb;text-anchor:middle;baseline-shift:baseline;color:#000;fill:#000;fill-opacity:1;fill-rule:nonzero;stroke:none;stroke-width:1px;marker:none;visibility:visible;display:inline;overflow:visible;enable-background:accumulate;font-family:Sans-Serif;-inkscape-font-specification:Sans-Serif" x="27.243" y="145.603" id="text4252"><tspan id="tspan4254" x="27.243" y="145.603">File</tspan></text><path id="rect3779-2" d="M-32.442 5.885H7.386a17.662 17.662 0 0 1 17.701 17.701v9.957l10 9.957-10 9.957v9.957a17.662 17.662 0 0 1-17.7 17.7h-39.829a17.662 17.662 0 0 1-17.7-17.7V23.586a17.662 17.662 0 0 1 17.7-17.7z" style="color:#000;fill:#fff;fill-opacity:1;fill-rule:nonzero;stroke:#555c61;stroke-width:1.7701149;stroke-opacity:1;marker:none;visibility:visible;display:inline;overflow:visible;enable-background:accumulate" transform="translate(40.299 153.362)"/><circle transform="translate(27.737 196.865)" style="color:#000;fill:#555c61;fill-opacity:1;fill-rule:nonzero;stroke:none;stroke-width:5;marker:none;visibility:visible;display:inline;overflow:visible;enable-background:accumulate" r="15" id="circle3295"/><path transform="translate(-300.957 150.45)" d="M346.234 28.6c9.833 9.681 9.962 25.499.289 35.34" id="path3777" style="color:#000;fill:none;stroke:#555c61;stroke-width:5;stroke-linecap:butt;stroke-linejoin:round;stroke-miterlimit:4;stroke-opacity:1;stroke-dasharray:none;stroke-dashoffset:0;marker:none;visibility:visible;display:inline;overflow:visible;enable-background:accumulate"/><path d="M56.048 196.862h55.386" id="path6662" style="fill:none;stroke:#555c61;stroke-width:4.96423101;stroke-linecap:square;stroke-linejoin:miter;stroke-miterlimit:4;stroke-opacity:1;stroke-dasharray:none"/></g></g><text id="text6685" y="4.013" x="204.569" style="font-size:22px;font-style:normal;font-variant:normal;font-weight:400;font-stretch:normal;text-indent:0;text-align:center;text-decoration:none;line-height:155.99999428%;letter-spacing:0;word-spacing:0;text-transform:none;direction:ltr;block-progression:tb;writing-mode:lr-tb;text-anchor:middle;baseline-shift:baseline;color:#000;fill:#000;fill-opacity:1;fill-rule:nonzero;stroke:none;stroke-width:1px;marker:none;visibility:visible;display:inline;overflow:visible;enable-background:accumulate;font-family:Sans-Serif;-inkscape-font-specification:Sans-Serif"><tspan y="4.013" x="204.569" id="tspan6687">Graph</tspan></text><path d="M232.012 55.154l27.546.174" id="path6689" style="opacity:0;fill:none;stroke:url(#linearGradient6725);stroke-width:5;stroke-linecap:butt;stroke-linejoin:miter;stroke-miterlimit:4;stroke-opacity:1;stroke-dasharray:none"/><text style="font-size:22px;font-style:normal;font-variant:normal;font-weight:400;font-stretch:normal;text-indent:0;text-align:center;text-decoration:none;line-height:155.99999428%;letter-spacing:0;word-spacing:0;text-transform:none;direction:ltr;block-progression:tb;writing-mode:lr-tb;text-anchor:middle;baseline-shift:baseline;color:#000;fill:#000;fill-opacity:1;fill-rule:nonzero;stroke:none;stroke-width:1px;marker:none;visibility:visible;display:inline;overflow:visible;enable-background:accumulate;font-family:Sans-Serif;-inkscape-font-specification:Sans-Serif" x="367.062" y="4.013" id="text6719"><tspan id="tspan6721" x="367.062" y="4.013">ProxyPipe</tspan></text><g id="g6806" transform="translate(139.196 346.87)"><path style="color:#000;fill:#fff;fill-opacity:1;fill-rule:nonzero;stroke:#555c61;stroke-width:1.7701149;stroke-opacity:1;marker:none;visibility:visible;display:inline;overflow:visible;enable-background:accumulate" d="M32.518 23.885h39.828a17.662 17.662 0 0 1 17.701 17.701v9.957l10 9.957-10 9.957v9.957a17.662 17.662 0 0 1-17.701 17.7H32.518a17.662 17.662 0 0 1-17.7-17.7v-9.957l10-9.957-10-9.957v-9.957a17.662 17.662 0 0 1 17.7-17.7z" id="path6792"/><path d="M-26.938 61.469h77.485" id="path6794" style="fill:none;stroke:#555c61;stroke-width:4.96423101;stroke-linecap:square;stroke-linejoin:miter;stroke-miterlimit:4;stroke-opacity:1;stroke-dasharray:none"/><path style="color:#000;fill:none;stroke:#555c61;stroke-width:5;stroke-linecap:butt;stroke-linejoin:round;stroke-miterlimit:4;stroke-opacity:1;stroke-dasharray:none;stroke-dashoffset:0;marker:none;visibility:visible;display:inline;overflow:visible;enable-background:accumulate" id="path6796" d="M346.234 28.6c9.833 9.681 9.962 25.499.289 35.34" transform="translate(-278.68 15.088)"/><circle id="circle6798" r="15" style="color:#000;fill:#555c61;fill-opacity:1;fill-rule:nonzero;stroke:none;stroke-width:5;marker:none;visibility:visible;display:inline;overflow:visible" transform="translate(52.398 61.503)"/><path style="fill:none;stroke:#555c61;stroke-width:4.96423101;stroke-linecap:square;stroke-linejoin:miter;stroke-miterlimit:4;stroke-opacity:1;stroke-dasharray:none" id="path6800" d="M77.512 61.469h54.618"/></g><g transform="matrix(-1 0 0 1 246.764 252.916)" id="g6813"><path id="path6815" d="M32.518 23.885h39.828a17.662 17.662 0 0 1 17.701 17.701v9.957l10 9.957-10 9.957v9.957a17.662 17.662 0 0 1-17.701 17.7H32.518a17.662 17.662 0 0 1-17.7-17.7v-9.957l10-9.957-10-9.957v-9.957a17.662 17.662 0 0 1 17.7-17.7z" style="color:#000;fill:#fff;fill-opacity:1;fill-rule:nonzero;stroke:#555c61;stroke-width:1.7701149;stroke-opacity:1;marker:none;visibility:visible;display:inline;overflow:visible;enable-background:accumulate"/><path style="fill:none;stroke:#555c61;stroke-width:4.96423101;stroke-linecap:square;stroke-linejoin:miter;stroke-miterlimit:4;stroke-opacity:1;stroke-dasharray:none" id="path6817" d="M-26.938 61.469h77.485"/><path transform="translate(-278.68 15.088)" d="M346.234 28.6c9.833 9.681 9.962 25.499.289 35.34" id="path6819" style="color:#000;fill:none;stroke:#555c61;stroke-width:5;stroke-linecap:butt;stroke-linejoin:round;stroke-miterlimit:4;stroke-opacity:1;stroke-dasharray:none;stroke-dashoffset:0;marker:none;visibility:visible;display:inline;overflow:visible;enable-background:accumulate"/><circle transform="translate(52.398 61.503)" style="color:#000;fill:#555c61;fill-opacity:1;fill-rule:nonzero;stroke:none;stroke-width:5;marker:none;visibility:visible;display:inline;overflow:visible" r="15" id="circle6821"/><path d="M77.512 61.469h54.618" id="path6823" style="fill:none;stroke:#555c61;stroke-width:4.96423101;stroke-linecap:square;stroke-linejoin:miter;stroke-miterlimit:4;stroke-opacity:1;stroke-dasharray:none"/></g><g transform="translate(153.05 -6.228)" id="g6921"><path id="path6923" d="M32.518 23.885h39.828a17.662 17.662 0 0 1 17.701 17.701v9.957l10 9.957-10 9.957v9.957a17.662 17.662 0 0 1-17.701 17.7H32.518a17.662 17.662 0 0 1-17.7-17.7v-9.957l10-9.957-10-9.957v-9.957a17.662 17.662 0 0 1 17.7-17.7z" style="color:#000;fill:#fff;fill-opacity:1;fill-rule:nonzero;stroke:#555c61;stroke-width:1.7701149;stroke-opacity:1;marker:none;visibility:visible;display:inline;overflow:visible;enable-background:accumulate"/><path style="fill:none;stroke:#555c61;stroke-width:4.96423101;stroke-linecap:square;stroke-linejoin:miter;stroke-miterlimit:4;stroke-opacity:1;stroke-dasharray:none" id="path6925" d="M-26.938 61.469h77.485"/><path transform="translate(-278.68 15.088)" d="M346.234 28.6c9.833 9.681 9.962 25.499.289 35.34" id="path6927" style="color:#000;fill:none;stroke:#555c61;stroke-width:5;stroke-linecap:butt;stroke-linejoin:round;stroke-miterlimit:4;stroke-opacity:1;stroke-dasharray:none;stroke-dashoffset:0;marker:none;visibility:visible;display:inline;overflow:visible;enable-background:accumulate"/><circle transform="translate(52.398 61.503)" style="color:#000;fill:#555c61;fill-opacity:1;fill-rule:nonzero;stroke:none;stroke-width:5;marker:none;visibility:visible;display:inline;overflow:visible" r="15" id="circle6929"/><path d="M77.512 61.469h54.618" id="path6931" style="fill:none;stroke:#555c61;stroke-width:4.96423101;stroke-linecap:square;stroke-linejoin:miter;stroke-miterlimit:4;stroke-opacity:1;stroke-dasharray:none"/></g><g transform="translate(479.076 -6.228)" id="g6945"><path id="path6947" d="M32.518 23.885h39.828a17.662 17.662 0 0 1 17.701 17.701v9.957l10 9.957-10 9.957v9.957a17.662 17.662 0 0 1-17.701 17.7H32.518a17.662 17.662 0 0 1-17.7-17.7v-9.957l10-9.957-10-9.957v-9.957a17.662 17.662 0 0 1 17.7-17.7z" style="color:#000;fill:#fff;fill-opacity:1;fill-rule:nonzero;stroke:#555c61;stroke-width:1.7701149;stroke-opacity:1;marker:none;visibility:visible;display:inline;overflow:visible;enable-background:accumulate"/><path style="fill:none;stroke:#555c61;stroke-width:4.96423101;stroke-linecap:square;stroke-linejoin:miter;stroke-miterlimit:4;stroke-opacity:1;stroke-dasharray:none" id="path6949" d="M-26.938 61.469h77.485"/><path transform="translate(-278.68 15.088)" d="M346.234 28.6c9.833 9.681 9.962 25.499.289 35.34" id="path6951" style="color:#000;fill:none;stroke:#555c61;stroke-width:5;stroke-linecap:butt;stroke-linejoin:round;stroke-miterlimit:4;stroke-opacity:1;stroke-dasharray:none;stroke-dashoffset:0;marker:none;visibility:visible;display:inline;overflow:visible;enable-background:accumulate"/><circle transform="translate(52.398 61.503)" style="color:#000;fill:#555c61;fill-opacity:1;fill-rule:nonzero;stroke:none;stroke-width:5;marker:none;visibility:visible;display:inline;overflow:visible" r="15" id="circle6953"/><path d="M77.512 61.469h54.618" id="path6955" style="fill:none;stroke:#555c61;stroke-width:4.96423101;stroke-linecap:square;stroke-linejoin:miter;stroke-miterlimit:4;stroke-opacity:1;stroke-dasharray:none"/></g><g id="g6957" transform="translate(642.09 -6.228)"><path style="color:#000;fill:#fff;fill-opacity:1;fill-rule:nonzero;stroke:#555c61;stroke-width:1.7701149;stroke-opacity:1;marker:none;visibility:visible;display:inline;overflow:visible;enable-background:accumulate" d="M32.518 23.885h39.828a17.662 17.662 0 0 1 17.701 17.701v9.957l10 9.957-10 9.957v9.957a17.662 17.662 0 0 1-17.701 17.7H32.518a17.662 17.662 0 0 1-17.7-17.7v-9.957l10-9.957-10-9.957v-9.957a17.662 17.662 0 0 1 17.7-17.7z" id="path6959"/><path d="M-26.938 61.469h77.485" id="path6961" style="fill:none;stroke:#555c61;stroke-width:4.96423101;stroke-linecap:square;stroke-linejoin:miter;stroke-miterlimit:4;stroke-opacity:1;stroke-dasharray:none"/><path style="color:#000;fill:none;stroke:#555c61;stroke-width:5;stroke-linecap:butt;stroke-linejoin:round;stroke-miterlimit:4;stroke-opacity:1;stroke-dasharray:none;stroke-dashoffset:0;marker:none;visibility:visible;display:inline;overflow:visible;enable-background:accumulate" id="path6963" d="M346.234 28.6c9.833 9.681 9.962 25.499.289 35.34" transform="translate(-278.68 15.088)"/><circle id="circle6965" r="15" style="color:#000;fill:#555c61;fill-opacity:1;fill-rule:nonzero;stroke:none;stroke-width:5;marker:none;visibility:visible;display:inline;overflow:visible" transform="translate(52.398 61.503)"/><path style="fill:none;stroke:#555c61;stroke-width:4.96423101;stroke-linecap:square;stroke-linejoin:miter;stroke-miterlimit:4;stroke-opacity:1;stroke-dasharray:none" id="path6967" d="M77.512 61.469h54.618"/></g><g transform="translate(805.103 -6.228)" id="g6969"><path id="path6971" d="M32.518 23.885h39.828a17.662 17.662 0 0 1 17.701 17.701v9.957l10 9.957-10 9.957v9.957a17.662 17.662 0 0 1-17.701 17.7H32.518a17.662 17.662 0 0 1-17.7-17.7v-9.957l10-9.957-10-9.957v-9.957a17.662 17.662 0 0 1 17.7-17.7z" style="color:#000;fill:#fff;fill-opacity:1;fill-rule:nonzero;stroke:#555c61;stroke-width:1.7701149;stroke-opacity:1;marker:none;visibility:visible;display:inline;overflow:visible;enable-background:accumulate"/><path style="fill:none;stroke:#555c61;stroke-width:4.96423101;stroke-linecap:square;stroke-linejoin:miter;stroke-miterlimit:4;stroke-opacity:1;stroke-dasharray:none" id="path6973" d="M-26.938 61.469h77.485"/><path transform="translate(-278.68 15.088)" d="M346.234 28.6c9.833 9.681 9.962 25.499.289 35.34" id="path6975" style="color:#000;fill:none;stroke:#555c61;stroke-width:5;stroke-linecap:butt;stroke-linejoin:round;stroke-miterlimit:4;stroke-opacity:1;stroke-dasharray:none;stroke-dashoffset:0;marker:none;visibility:visible;display:inline;overflow:visible;enable-background:accumulate"/><circle transform="translate(52.398 61.503)" style="color:#000;fill:#555c61;fill-opacity:1;fill-rule:nonzero;stroke:none;stroke-width:5;marker:none;visibility:visible;display:inline;overflow:visible" r="15" id="circle6977"/><path d="M77.512 61.469h54.618" id="path6979" style="fill:none;stroke:#555c61;stroke-width:4.96423101;stroke-linecap:square;stroke-linejoin:miter;stroke-miterlimit:4;stroke-opacity:1;stroke-dasharray:none"/></g><g id="g6981" transform="matrix(-1 0 0 1 746.98 120.335)"><path style="color:#000;fill:#fff;fill-opacity:1;fill-rule:nonzero;stroke:#555c61;stroke-width:1.7701149;stroke-opacity:1;marker:none;visibility:visible;display:inline;overflow:visible;enable-background:accumulate" d="M32.518 23.885h39.828a17.662 17.662 0 0 1 17.701 17.701v9.957l10 9.957-10 9.957v9.957a17.662 17.662 0 0 1-17.701 17.7H32.518a17.662 17.662 0 0 1-17.7-17.7v-9.957l10-9.957-10-9.957v-9.957a17.662 17.662 0 0 1 17.7-17.7z" id="path6983"/><path d="M-26.938 61.469h77.485" id="path6985" style="fill:none;stroke:#555c61;stroke-width:4.96423101;stroke-linecap:square;stroke-linejoin:miter;stroke-miterlimit:4;stroke-opacity:1;stroke-dasharray:none"/><path style="color:#000;fill:none;stroke:#555c61;stroke-width:5;stroke-linecap:butt;stroke-linejoin:round;stroke-miterlimit:4;stroke-opacity:1;stroke-dasharray:none;stroke-dashoffset:0;marker:none;visibility:visible;display:inline;overflow:visible;enable-background:accumulate" id="path6987" d="M346.234 28.6c9.833 9.681 9.962 25.499.289 35.34" transform="translate(-278.68 15.088)"/><circle id="circle6989" r="15" style="color:#000;fill:#555c61;fill-opacity:1;fill-rule:nonzero;stroke:none;stroke-width:5;marker:none;visibility:visible;display:inline;overflow:visible" transform="translate(52.398 61.503)"/><path style="fill:none;stroke:#555c61;stroke-width:4.96423101;stroke-linecap:square;stroke-linejoin:miter;stroke-miterlimit:4;stroke-opacity:1;stroke-dasharray:none" id="path6991" d="M77.512 61.469h54.618"/></g><path d="M-25.088 467.824H97.1" id="path6993" style="fill:none;stroke:#555c61;stroke-width:5;stroke-linecap:square;stroke-linejoin:miter;stroke-miterlimit:4;stroke-opacity:1;stroke-dasharray:none"/><path style="fill:none;stroke:#555c61;stroke-width:5;stroke-linecap:square;stroke-linejoin:miter;stroke-miterlimit:4;stroke-opacity:1;stroke-dasharray:none" id="path6995" d="M775.766 181.835h161.527"/><text style="font-size:22px;font-style:normal;font-variant:normal;font-weight:400;font-stretch:normal;text-indent:0;text-align:center;text-decoration:none;line-height:155.99999428%;letter-spacing:0;word-spacing:0;text-transform:none;direction:ltr;block-progression:tb;writing-mode:lr-tb;text-anchor:middle;baseline-shift:baseline;color:#000;fill:#000;fill-opacity:1;fill-rule:nonzero;stroke:none;stroke-width:1px;marker:none;visibility:visible;display:inline;overflow:visible;enable-background:accumulate;font-family:Sans-Serif;-inkscape-font-specification:Sans-Serif" x="693.692" y="130.373" id="text6997"><tspan id="tspan6999" x="693.692" y="130.373">ProxyPipe</tspan></text><path d="M449.136 181.835h161.527" id="path7001" style="fill:none;stroke:#555c61;stroke-width:5;stroke-linecap:square;stroke-linejoin:miter;stroke-miterlimit:4;stroke-opacity:1;stroke-dasharray:none"/><path d="M449.48 178.196V56.008" id="path7003" style="fill:none;stroke:#555c61;stroke-width:5;stroke-linecap:square;stroke-linejoin:miter;stroke-miterlimit:4;stroke-opacity:1;stroke-dasharray:none"/><path id="path6723" d="M447.41 55.272h6.519" style="fill:none;stroke:#000;stroke-width:2.38415837;stroke-linecap:butt;stroke-linejoin:miter;stroke-miterlimit:4;stroke-opacity:1;stroke-dasharray:none;marker-start:url(#TriangleOutL);marker-mid:none"/><path id="path7005" d="M121.383 55.272h6.52" style="fill:none;stroke:#000;stroke-width:2.38415837;stroke-linecap:butt;stroke-linejoin:miter;stroke-miterlimit:4;stroke-opacity:1;stroke-dasharray:none;marker-start:url(#TriangleOutL);marker-mid:none"/><path style="fill:none;stroke:#000;stroke-width:2.38415837;stroke-linecap:butt;stroke-linejoin:miter;stroke-miterlimit:4;stroke-opacity:1;stroke-dasharray:none;marker-start:url(#TriangleOutL);marker-mid:none" d="M610.423 55.272h6.52" id="path7007"/><path id="path7009" d="M773.437 55.272h6.519" style="fill:none;stroke:#000;stroke-width:2.38415837;stroke-linecap:butt;stroke-linejoin:miter;stroke-miterlimit:4;stroke-opacity:1;stroke-dasharray:none;marker-start:url(#TriangleOutL);marker-mid:none"/><path style="fill:none;stroke:#000;stroke-width:2.38415837;stroke-linecap:butt;stroke-linejoin:miter;stroke-miterlimit:4;stroke-opacity:1;stroke-dasharray:none;marker-start:url(#TriangleOutL);marker-mid:none" d="M284.396 55.272h6.52" id="path6715"/><path style="fill:none;stroke:#000;stroke-width:2.38415837;stroke-linecap:butt;stroke-linejoin:miter;stroke-miterlimit:4;stroke-opacity:1;stroke-dasharray:none;marker-start:url(#TriangleOutL);marker-mid:none" d="M778.949 181.835h-6.52" id="path7011"/><path id="path7013" d="M615.935 181.835h-6.519" style="fill:none;stroke:#000;stroke-width:2.38415837;stroke-linecap:butt;stroke-linejoin:miter;stroke-miterlimit:4;stroke-opacity:1;stroke-dasharray:none;marker-start:url(#TriangleOutL);marker-mid:none"/><path style="fill:none;stroke:#555c61;stroke-width:5;stroke-linecap:square;stroke-linejoin:miter;stroke-miterlimit:4;stroke-opacity:1;stroke-dasharray:none" id="path7073" d="M63.917 416.611V294.423"/><path id="path7075" d="M364.882 27.142c-4.404 0-7.956 3.731-7.956 8.302 0 1.096.193 2.125.566 3.082a7.496 7.496 0 0 0-2.673-.472 7.545 7.545 0 0 0-7.547 7.547c0 1.639.528 3.165 1.415 4.403-2.893 2.146-4.78 5.587-4.78 9.466a11.749 11.749 0 0 0 11.76 11.76c.849 0 1.688-.112 2.485-.282-.03.282-.063.59-.063.88 0 4.504 3.673 8.145 8.177 8.145 2.833 0 5.3-1.422 6.76-3.616a11.762 11.762 0 0 0 9.529 4.842c6.505 0 11.793-5.287 11.793-11.792 0-1.274-.224-2.5-.598-3.648 5.703-.154 10.315-4.794 10.315-10.535 0-5.838-4.76-10.566-10.598-10.566-.679 0-1.338.066-1.981.189.081-.559.157-1.149.157-1.73 0-6.505-5.287-11.761-11.792-11.761-2.684 0-5.158.91-7.139 2.421-.743-3.77-3.977-6.635-7.83-6.635z" style="color:#000;fill:url(#linearGradient7077);fill-opacity:1;stroke:#6f6f6f;stroke-width:.73102301;stroke-linecap:butt;stroke-linejoin:round;stroke-miterlimit:4;stroke-opacity:1;stroke-dashoffset:0;marker:none;visibility:visible;display:inline;overflow:visible;enable-background:accumulate"/><path style="color:#000;fill:url(#linearGradient7081);fill-opacity:1;stroke:#6f6f6f;stroke-width:.73102301;stroke-linecap:butt;stroke-linejoin:round;stroke-miterlimit:4;stroke-opacity:1;stroke-dashoffset:0;marker:none;visibility:visible;display:inline;overflow:visible;enable-background:accumulate" d="M690.32 27.142c-4.404 0-7.956 3.731-7.956 8.302 0 1.096.193 2.125.566 3.082a7.496 7.496 0 0 0-2.673-.472 7.545 7.545 0 0 0-7.548 7.547c0 1.639.529 3.165 1.416 4.403-2.893 2.146-4.78 5.587-4.78 9.466a11.749 11.749 0 0 0 11.76 11.76c.848 0 1.688-.112 2.485-.282-.03.282-.063.59-.063.88 0 4.504 3.673 8.145 8.176 8.145 2.834 0 5.3-1.422 6.761-3.616a11.762 11.762 0 0 0 9.529 4.842c6.505 0 11.792-5.287 11.792-11.792 0-1.274-.223-2.5-.597-3.648 5.703-.154 10.315-4.794 10.315-10.535 0-5.838-4.76-10.566-10.598-10.566-.679 0-1.338.066-1.981.189.081-.559.157-1.149.157-1.73 0-6.505-5.287-11.761-11.793-11.761-2.683 0-5.158.91-7.138 2.421-.744-3.77-3.977-6.635-7.83-6.635z" id="path7079"/><path id="path7083" d="M681.975 154.695c-4.404 0-7.956 3.73-7.956 8.302 0 1.096.193 2.124.566 3.081a7.496 7.496 0 0 0-2.673-.471 7.545 7.545 0 0 0-7.547 7.547c0 1.638.528 3.165 1.415 4.403-2.892 2.146-4.78 5.587-4.78 9.465a11.749 11.749 0 0 0 11.761 11.761c.848 0 1.688-.113 2.484-.283-.029.282-.062.59-.062.88 0 4.504 3.672 8.145 8.176 8.145 2.834 0 5.3-1.422 6.76-3.616a11.762 11.762 0 0 0 9.53 4.843c6.505 0 11.792-5.287 11.792-11.793 0-1.273-.224-2.499-.598-3.648 5.704-.154 10.315-4.794 10.315-10.534 0-5.838-4.76-10.566-10.598-10.566-.678 0-1.338.066-1.98.188.08-.558.156-1.148.156-1.73 0-6.505-5.287-11.76-11.792-11.76-2.683 0-5.158.91-7.139 2.42-.743-3.77-3.976-6.634-7.83-6.634z" style="color:#000;fill:url(#linearGradient7085);fill-opacity:1;stroke:#6f6f6f;stroke-width:.73102301;stroke-linecap:butt;stroke-linejoin:round;stroke-miterlimit:4;stroke-opacity:1;stroke-dashoffset:0;marker:none;visibility:visible;display:inline;overflow:visible;enable-background:accumulate"/></svg>