<svg xmlns="http://www.w3.org/2000/svg" xmlns:xlink="http://www.w3.org/1999/xlink" width="1123.552" height="416.188" viewBox="0 0 669.682 222.66" id="svg3030"><defs id="defs3032"><marker orient="auto" id="TriangleOutL" style="overflow:visible"><path id="path4402" d="M5.77 0l-8.65 5V-5l8.65 5z" style="fill-rule:evenodd;stroke:#000;stroke-width:1pt" transform="scale(.8)"/></marker><linearGradient id="linearGradient3801"><stop style="stop-color:#555c61;stop-opacity:1" offset="0" id="stop3803"/><stop id="stop3807" offset=".513" style="stop-color:#fff;stop-opacity:1"/><stop style="stop-color:#555c61;stop-opacity:1" offset="1" id="stop3805"/></linearGradient><linearGradient id="linearGradient3795"><stop id="stop3797" offset="0" style="stop-color:#555c61;stop-opacity:1"/><stop id="stop3799" offset="1" style="stop-color:#555c61;stop-opacity:0"/></linearGradient><linearGradient id="linearGradient3809"><stop style="stop-color:#555c61;stop-opacity:1" offset="0" id="stop3811"/><stop style="stop-color:#555c61;stop-opacity:1" offset="1" id="stop3813"/></linearGradient><radialGradient xlink:href="#linearGradient3809" id="radialGradient3851" cx="0" cy="0" fx="0" fy="0" r="15" gradientUnits="userSpaceOnUse"/><linearGradient xlink:href="#linearGradient3801" id="linearGradient3793" x1="37.897" y1="122.03" x2="70.443" y2="122.03" gradientUnits="userSpaceOnUse" spreadMethod="reflect" gradientTransform="translate(215.453 74.801)"/><linearGradient id="linearGradient3834"><stop style="stop-color:#fff;stop-opacity:1" offset="0" id="stop3836"/><stop style="stop-color:#d4d4d4;stop-opacity:1" offset="1" id="stop3838"/></linearGradient><linearGradient xlink:href="#linearGradient3834" id="linearGradient3854" gradientUnits="userSpaceOnUse" gradientTransform="translate(401.683 -16.3) scale(1.0063)" x1="36.359" y1="37.359" x2="96.146" y2="37.359"/><linearGradient xlink:href="#linearGradient3834" id="linearGradient4086" gradientUnits="userSpaceOnUse" gradientTransform="translate(377.824 157.567) scale(1.0063)" x1="36.359" y1="37.359" x2="96.146" y2="37.359"/></defs><style id="style3018"/><path d="M319.464 196.369V52.936" id="path3301-4" style="fill:none;stroke:#555c61;stroke-width:5;stroke-linecap:square;stroke-linejoin:miter;stroke-miterlimit:4;stroke-opacity:1;stroke-dasharray:none"/><text style="font-size:22px;font-style:normal;font-variant:normal;font-weight:400;font-stretch:normal;text-indent:0;text-align:center;text-decoration:none;line-height:155.99999428%;letter-spacing:0;word-spacing:0;text-transform:none;direction:ltr;block-progression:tb;writing-mode:lr-tb;text-anchor:middle;baseline-shift:baseline;color:#000;fill:#000;fill-opacity:1;fill-rule:nonzero;stroke:none;stroke-width:1px;marker:none;visibility:visible;display:inline;overflow:visible;enable-background:accumulate;font-family:Sans-Serif;-inkscape-font-specification:Sans-Serif" x="238.085" y="145.603" id="text3114"><tspan id="tspan3116" x="238.085" y="145.603">Graph</tspan></text><path style="opacity:0;fill:none;stroke:url(#linearGradient3793);stroke-width:5;stroke-linecap:butt;stroke-linejoin:miter;stroke-miterlimit:4;stroke-opacity:1;stroke-dasharray:none" id="token" d="M255.85 196.744l27.546.175"/><g transform="translate(567.682 153.362)" id="g3034"><path style="color:#000;fill:#fff;fill-opacity:1;fill-rule:nonzero;stroke:#555c61;stroke-width:1.7701149;stroke-opacity:1;marker:none;visibility:visible;display:inline;overflow:visible;enable-background:accumulate" d="M43.586 5.885h39.828a17.662 17.662 0 0 1 17.7 17.701v9.957l.001 9.957v19.914a17.662 17.662 0 0 1-17.701 17.7H43.586a17.662 17.662 0 0 1-17.7-17.7v-9.957l9.999-9.957-10-9.957v-9.957a17.662 17.662 0 0 1 17.701-17.7z" id="rect3779-7"/><path d="M4.5 43.469h50" id="path3301-3" style="fill:none;stroke:#555c61;stroke-width:5;stroke-linecap:butt;stroke-linejoin:miter;stroke-miterlimit:4;stroke-opacity:1;stroke-dasharray:none;marker-end:none"/><circle class="test" id="sink" r="15" style="color:#000;fill:#555c61;fill-opacity:1;fill-rule:nonzero;stroke:none;stroke-width:5;marker:none;visibility:visible;display:inline;overflow:visible;enable-background:accumulate" transform="translate(63.466 43.503)"/></g><text style="font-size:22px;font-style:normal;font-variant:normal;font-weight:400;font-stretch:normal;text-indent:0;text-align:center;text-decoration:none;line-height:155.99999428%;letter-spacing:0;word-spacing:0;text-transform:none;direction:ltr;block-progression:tb;writing-mode:lr-tb;text-anchor:middle;baseline-shift:baseline;color:#000;fill:#000;fill-opacity:1;fill-rule:nonzero;stroke:none;stroke-width:1px;marker:none;visibility:visible;display:inline;overflow:visible;enable-background:accumulate;font-family:Sans-Serif;-inkscape-font-specification:Sans-Serif" x="441.357" y="145.603" id="text3118"><tspan id="tspan3120" x="441.357" y="145.603">ProxyPipe</tspan></text><text style="font-size:22px;font-style:normal;font-variant:normal;font-weight:400;font-stretch:normal;text-indent:0;text-align:center;text-decoration:none;line-height:155.99999428%;letter-spacing:0;word-spacing:0;text-transform:none;direction:ltr;block-progression:tb;writing-mode:lr-tb;text-anchor:middle;baseline-shift:baseline;color:#000;fill:#000;fill-opacity:1;fill-rule:nonzero;stroke:none;stroke-width:1px;marker:none;visibility:visible;display:inline;overflow:visible;enable-background:accumulate;font-family:Sans-Serif;-inkscape-font-specification:Sans-Serif" x="631.072" y="145.603" id="text3122"><tspan id="tspan3124" x="631.072" y="145.603">Viewer</tspan></text><g id="g3874" transform="translate(175.823 135.362)"><path style="color:#000;fill:#fff;fill-opacity:1;fill-rule:nonzero;stroke:#555c61;stroke-width:1.7701149;stroke-opacity:1;marker:none;visibility:visible;display:inline;overflow:visible;enable-background:accumulate" d="M42.055 23.885h39.828a17.662 17.662 0 0 1 17.7 17.701v9.957l10 9.957-10 9.957v9.957a17.662 17.662 0 0 1-17.7 17.7H42.055a17.662 17.662 0 0 1-17.701-17.7v-9.957l10-9.957-10-9.957v-9.957a17.662 17.662 0 0 1 17.701-17.7z" id="path3052"/><path d="M-24.456 61.469h86.31" id="path3054" style="fill:none;stroke:#555c61;stroke-width:4.96423101;stroke-linecap:square;stroke-linejoin:miter;stroke-miterlimit:4;stroke-opacity:1;stroke-dasharray:none"/><path style="color:#000;fill:none;stroke:#555c61;stroke-width:5;stroke-linecap:butt;stroke-linejoin:round;stroke-miterlimit:4;stroke-opacity:1;stroke-dasharray:none;stroke-dashoffset:0;marker:none;visibility:visible;display:inline;overflow:visible;enable-background:accumulate" id="path3056" d="M346.234 28.6c9.833 9.681 9.962 25.499.289 35.34" transform="translate(-266.76 15.088)"/><circle id="circle3060" r="15" style="color:#000;fill:#555c61;fill-opacity:1;fill-rule:nonzero;stroke:none;stroke-width:5;marker:none;visibility:visible;display:inline;overflow:visible" transform="translate(61.935 61.503)"/><path style="fill:none;stroke:#555c61;stroke-width:4.96423101;stroke-linecap:square;stroke-linejoin:miter;stroke-miterlimit:4;stroke-opacity:1;stroke-dasharray:none" id="path3872" d="M87.049 61.469h55.386"/></g><g id="g3881" transform="matrix(-1 0 0 1 305.116 -8.767)"><path id="path3883" d="M46.823 23.885h39.828a17.662 17.662 0 0 1 17.701 17.701v9.957l10 9.957-10 9.957v9.957a17.662 17.662 0 0 1-17.701 17.7H46.823a17.662 17.662 0 0 1-17.7-17.7v-9.957l10-9.957-10-9.957v-9.957a17.662 17.662 0 0 1 17.7-17.7z" style="color:#000;fill:#fff;fill-opacity:1;fill-rule:nonzero;stroke:#555c61;stroke-width:1.7701149;stroke-opacity:1;marker:none;visibility:visible;display:inline;overflow:visible;enable-background:accumulate"/><path style="fill:none;stroke:#555c61;stroke-width:4.96423101;stroke-linecap:square;stroke-linejoin:miter;stroke-miterlimit:4;stroke-opacity:1;stroke-dasharray:none" id="path3885" d="M-14.278 61.469h80.9"/><path transform="translate(-261.991 15.088)" d="M346.234 28.6c9.833 9.681 9.962 25.499.289 35.34" id="path3887" style="color:#000;fill:none;stroke:#555c61;stroke-width:5;stroke-linecap:butt;stroke-linejoin:round;stroke-miterlimit:4;stroke-opacity:1;stroke-dasharray:none;stroke-dashoffset:0;marker:none;visibility:visible;display:inline;overflow:visible;enable-background:accumulate"/><circle transform="translate(66.703 61.503)" style="color:#000;fill:#555c61;fill-opacity:1;fill-rule:nonzero;stroke:none;stroke-width:5;marker:none;visibility:visible;display:inline;overflow:visible" r="15" id="circle3889"/><path d="M93.009 61.469h60.74" id="path3891" style="fill:none;stroke:#555c61;stroke-width:4.96423101;stroke-linecap:square;stroke-linejoin:miter;stroke-miterlimit:4;stroke-opacity:1;stroke-dasharray:none"/></g><text id="text3062" y="3.336" x="242.687" style="font-size:22px;font-style:normal;font-variant:normal;font-weight:400;font-stretch:normal;text-indent:0;text-align:center;text-decoration:none;line-height:155.99999428%;letter-spacing:0;word-spacing:0;text-transform:none;direction:ltr;block-progression:tb;writing-mode:lr-tb;text-anchor:middle;baseline-shift:baseline;color:#000;fill:#000;fill-opacity:1;fill-rule:nonzero;stroke:none;stroke-width:1px;marker:none;visibility:visible;display:inline;overflow:visible;enable-background:accumulate;font-family:Sans-Serif;-inkscape-font-specification:Sans-Serif"><tspan y="3.336" x="242.687" id="tspan3064">Layout</tspan></text><path style="fill:none;stroke:#555c61;stroke-width:5;stroke-linecap:square;stroke-linejoin:miter;stroke-miterlimit:4;stroke-opacity:1;stroke-dasharray:none" id="path3946" d="M370.198 196.862H305.84"/><g transform="translate(376.346 135.362)" id="g4101"><path id="path4103" d="M42.055 23.885h39.828a17.662 17.662 0 0 1 17.7 17.701v9.957l10 9.957-10 9.957v9.957a17.662 17.662 0 0 1-17.7 17.7H42.055a17.662 17.662 0 0 1-17.701-17.7v-9.957l10-9.957-10-9.957v-9.957a17.662 17.662 0 0 1 17.701-17.7z" style="color:#000;fill:#fff;fill-opacity:1;fill-rule:nonzero;stroke:#555c61;stroke-width:1.7701149;stroke-opacity:1;marker:none;visibility:visible;display:inline;overflow:visible;enable-background:accumulate"/><path style="fill:none;stroke:#555c61;stroke-width:4.96423101;stroke-linecap:square;stroke-linejoin:miter;stroke-miterlimit:4;stroke-opacity:1;stroke-dasharray:none" id="path4105" d="M-1.165 61.469h63.02"/><path transform="translate(-266.76 15.088)" d="M346.234 28.6c9.833 9.681 9.962 25.499.289 35.34" id="path4107" style="color:#000;fill:none;stroke:#555c61;stroke-width:5;stroke-linecap:butt;stroke-linejoin:round;stroke-miterlimit:4;stroke-opacity:1;stroke-dasharray:none;stroke-dashoffset:0;marker:none;visibility:visible;display:inline;overflow:visible;enable-background:accumulate"/><circle transform="translate(61.935 61.503)" style="color:#000;fill:#555c61;fill-opacity:1;fill-rule:nonzero;stroke:none;stroke-width:5;marker:none;visibility:visible;display:inline;overflow:visible" r="15" id="circle4109"/><path d="M87.049 61.469h37.986" id="path4111" style="fill:none;stroke:#555c61;stroke-width:4.96423101;stroke-linecap:square;stroke-linejoin:miter;stroke-miterlimit:4;stroke-opacity:1;stroke-dasharray:none"/></g><path d="M569.853 196.862h-64.358" id="path4113" style="fill:none;stroke:#555c61;stroke-width:5;stroke-linecap:square;stroke-linejoin:miter;stroke-miterlimit:4;stroke-opacity:1;stroke-dasharray:none"/><path d="M169.705 196.862h-64.358" id="path4115" style="fill:none;stroke:#555c61;stroke-width:5;stroke-linecap:square;stroke-linejoin:miter;stroke-miterlimit:4;stroke-opacity:1;stroke-dasharray:none;marker-mid:none"/><g id="g3074" transform="translate(-5 153.362)"><path id="rect3779-2" d="M23.586 5.885h39.828a17.662 17.662 0 0 1 17.7 17.701v9.957L91.116 43.5l-10 9.957v9.957a17.662 17.662 0 0 1-17.701 17.7H23.586a17.662 17.662 0 0 1-17.7-17.7V23.586a17.662 17.662 0 0 1 17.7-17.7z" style="color:#000;fill:#fff;fill-opacity:1;fill-rule:nonzero;stroke:#555c61;stroke-width:1.7701149;stroke-opacity:1;marker:none;visibility:visible;display:inline;overflow:visible;enable-background:accumulate"/><path style="fill:none;stroke:#555c61;stroke-width:5;stroke-linecap:butt;stroke-linejoin:miter;stroke-miterlimit:4;stroke-opacity:1;stroke-dasharray:none" id="path3301-7" d="M68.456 43.469h40"/><circle transform="translate(43.466 43.503)" style="color:#000;fill:#555c61;fill-opacity:1;fill-rule:nonzero;stroke:none;stroke-width:5;marker:none;visibility:visible;display:inline;overflow:visible;enable-background:accumulate" r="15" id="circle3295"/><path transform="translate(-285.228 -2.912)" d="M346.234 28.6c9.833 9.681 9.962 25.499.289 35.34" id="path3777" style="color:#000;fill:none;stroke:#555c61;stroke-width:5;stroke-linecap:butt;stroke-linejoin:round;stroke-miterlimit:4;stroke-opacity:1;stroke-dasharray:none;stroke-dashoffset:0;marker:none;visibility:visible;display:inline;overflow:visible;enable-background:accumulate"/></g><path style="color:#000;fill:url(#linearGradient4086);fill-opacity:1;stroke:#6f6f6f;stroke-width:.73102301;stroke-linecap:butt;stroke-linejoin:round;stroke-miterlimit:4;stroke-opacity:1;stroke-dashoffset:0;marker:none;visibility:visible;display:inline;overflow:visible;enable-background:accumulate" d="M435.404 168.134c-4.404 0-7.956 3.73-7.956 8.302 0 1.096.193 2.124.566 3.081a7.496 7.496 0 0 0-2.673-.471 7.545 7.545 0 0 0-7.548 7.547c0 1.638.529 3.165 1.415 4.402-2.892 2.147-4.78 5.588-4.78 9.466a11.749 11.749 0 0 0 11.762 11.761c.847 0 1.687-.113 2.484-.283-.03.282-.063.59-.063.88 0 4.504 3.673 8.145 8.176 8.145 2.834 0 5.3-1.422 6.761-3.616a11.762 11.762 0 0 0 9.529 4.843c6.505 0 11.792-5.288 11.792-11.793 0-1.273-.223-2.499-.597-3.648 5.703-.154 10.314-4.794 10.314-10.534 0-5.838-4.759-10.567-10.597-10.567-.679 0-1.338.067-1.981.19.08-.56.157-1.15.157-1.73 0-6.506-5.287-11.762-11.793-11.762-2.683 0-5.158.911-7.138 2.422-.744-3.772-3.977-6.635-7.83-6.635z" id="path3019"/><path style="fill:none;stroke:#555c61;stroke-width:5.00017643;stroke-linecap:square;stroke-linejoin:miter;stroke-miterlimit:4;stroke-opacity:1;stroke-dasharray:none;marker-start:none;marker-mid:none" id="path4244" d="M151.38 196.369V52.936"/><text id="text4252" y="145.603" x="38.794" style="font-size:22px;font-style:normal;font-variant:normal;font-weight:400;font-stretch:normal;text-indent:0;text-align:center;text-decoration:none;line-height:155.99999428%;letter-spacing:0;word-spacing:0;text-transform:none;direction:ltr;block-progression:tb;writing-mode:lr-tb;text-anchor:middle;baseline-shift:baseline;color:#000;fill:#000;fill-opacity:1;fill-rule:nonzero;stroke:none;stroke-width:1px;marker:none;visibility:visible;display:inline;overflow:visible;enable-background:accumulate;font-family:Sans-Serif;-inkscape-font-specification:Sans-Serif"><tspan y="145.603" x="38.794" id="tspan4254">File</tspan></text><path style="fill:none;stroke:#000;stroke-width:2.38415837;stroke-linecap:butt;stroke-linejoin:miter;stroke-miterlimit:4;stroke-opacity:1;stroke-dasharray:none;marker-start:url(#TriangleOutL);marker-mid:none" d="M116.275 196.862h6.52" id="path5792"/><path id="path6344" d="M151.38 122.041v6.52" style="fill:none;stroke:#000;stroke-width:2.38415837;stroke-linecap:butt;stroke-linejoin:miter;stroke-miterlimit:4;stroke-opacity:1;stroke-dasharray:none;marker-start:url(#TriangleOutL);marker-mid:none"/><path style="fill:none;stroke:#000;stroke-width:2.38415837;stroke-linecap:butt;stroke-linejoin:miter;stroke-miterlimit:4;stroke-opacity:1;stroke-dasharray:none;marker-start:url(#TriangleOutL);marker-mid:none" d="M319.464 127.554v-6.52" id="path6346"/><path id="path6348" d="M360.652 196.862h6.519" style="fill:none;stroke:#000;stroke-width:2.38415837;stroke-linecap:butt;stroke-linejoin:miter;stroke-miterlimit:4;stroke-opacity:1;stroke-dasharray:none;marker-start:url(#TriangleOutL);marker-mid:none"/><path style="fill:none;stroke:#000;stroke-width:2.38415837;stroke-linecap:butt;stroke-linejoin:miter;stroke-miterlimit:4;stroke-opacity:1;stroke-dasharray:none;marker-start:url(#TriangleOutL);marker-mid:none" d="M545.424 196.862h6.52" id="path6350"/></svg>