<svg xmlns="http://www.w3.org/2000/svg" width="242.873" height="178.325" id="svg2"><g id="layer1" transform="translate(-347.627 -312.926)"><path style="opacity:.78508768;color:#000;fill:#e6deb3;fill-opacity:1;fill-rule:nonzero;stroke:none;stroke-width:1px;marker:none;visibility:visible;display:inline;overflow:visible;enable-background:accumulate" id="path3979-4-9" d="M230 112.362c0 44.183-49.249 80-110 80s-110-35.817-110-80 49.249-80 110-80 110 35.817 110 80z" transform="matrix(.9806 -.36251 .36843 .99658 300.406 333.613)"/><path style="fill:none;stroke:#ff0404;stroke-width:1px;stroke-linecap:butt;stroke-linejoin:miter;stroke-opacity:1" d="M410 427.362v45" id="path3782-1-1"/><path style="fill:none;stroke:#ff0404;stroke-width:1px;stroke-linecap:butt;stroke-linejoin:miter;stroke-opacity:1" d="M470 412.362l-25 25" id="path3782-9-3-0"/><path style="fill:none;stroke:#ff0404;stroke-width:1px;stroke-linecap:butt;stroke-linejoin:miter;stroke-opacity:1" d="M410 352.362v45" id="path3782-1-1-8"/><path style="fill:none;stroke:#ff0404;stroke-width:1px;stroke-linecap:butt;stroke-linejoin:miter;stroke-opacity:1" d="M445 387.362l25 25" id="path3782-0-6-2"/><path style="fill:none;stroke:#ff0404;stroke-width:1px;stroke-linecap:butt;stroke-linejoin:miter;stroke-opacity:1" d="M500 412.362h-30" id="path3782-3-84-2"/><path style="fill:none;stroke:#1fff09;stroke-width:1px;stroke-linecap:butt;stroke-linejoin:miter;stroke-opacity:1" d="M590 412.362h-40" id="path3782-3-8-3-9"/><path style="fill:none;stroke:#1fff09;stroke-width:1px;stroke-linecap:butt;stroke-linejoin:miter;stroke-opacity:1" d="M550 462.362v-50" id="path3782-3-5-2-9"/><path style="fill:none;stroke:#ff0404;stroke-width:1px;stroke-linecap:butt;stroke-linejoin:miter;stroke-opacity:1" d="M410 352.362l25 25" id="path3782-0-6-2-2"/><path transform="translate(350 290)" style="color:#000;fill:#92a1a4;fill-opacity:1;fill-rule:nonzero;stroke:none;stroke-width:1px;marker:none;visibility:visible;display:inline;overflow:visible;enable-background:accumulate" id="path2987-5-0" d="M70 62.362c0 5.523-4.477 10-10 10s-10-4.477-10-10 4.477-10 10-10 10 4.477 10 10z"/><path transform="translate(410 350)" style="color:#000;fill:#92a1a4;fill-opacity:1;fill-rule:nonzero;stroke:none;stroke-width:1px;marker:none;visibility:visible;display:inline;overflow:visible;enable-background:accumulate" id="path2987-2-85-8" d="M70 62.362c0 5.523-4.477 10-10 10s-10-4.477-10-10 4.477-10 10-10 10 4.477 10 10z"/><path style="fill:none;stroke:#ff0404;stroke-width:1px;stroke-linecap:butt;stroke-linejoin:miter;stroke-opacity:1" d="M435 447.362l-25 25" id="path3782-9-3-0-7"/><path transform="translate(350 410)" style="color:#000;fill:#92a1a4;fill-opacity:1;fill-rule:nonzero;stroke:none;stroke-width:1px;marker:none;visibility:visible;display:inline;overflow:visible;enable-background:accumulate" id="path2987-8-5-3" d="M70 62.362c0 5.523-4.477 10-10 10s-10-4.477-10-10 4.477-10 10-10 10 4.477 10 10z"/><path style="fill:none;stroke:#ff0404;stroke-width:1px;stroke-linecap:butt;stroke-linejoin:miter;stroke-opacity:1" d="M550 412.362h-30" id="path3782-9-3-0-5"/><path style="fill:none;stroke:#ff0404;stroke-width:1px;stroke-linecap:butt;stroke-linejoin:miter;stroke-opacity:1" d="M520 407.362v10" id="path3782-9-3-0-1"/><path style="fill:none;stroke:#ff0404;stroke-width:1px;stroke-linecap:butt;stroke-linejoin:miter;stroke-opacity:1" d="M500 407.362v10" id="path3782-9-3-0-1-8"/><path style="fill:none;stroke:#ff0404;stroke-width:1px;stroke-linecap:butt;stroke-linejoin:miter;stroke-opacity:1" d="M405 427.362h10" id="path3782-9-3-0-1-8-3"/><path style="fill:none;stroke:#ff0404;stroke-width:1px;stroke-linecap:butt;stroke-linejoin:miter;stroke-opacity:1" d="M415 397.362h-10" id="path3782-9-3-0-1-8-4"/><path style="fill:none;stroke:#ff0404;stroke-width:1px;stroke-linecap:butt;stroke-linejoin:miter;stroke-opacity:1" d="M440 372.362l-10 10" id="path3782-9-3-0-1-8-8"/><path style="fill:none;stroke:#ff0404;stroke-width:1px;stroke-linecap:butt;stroke-linejoin:miter;stroke-opacity:1" d="M450 382.362l-10 10" id="path3782-9-3-0-1-8-40"/><path style="fill:none;stroke:#ff0404;stroke-width:1px;stroke-linecap:butt;stroke-linejoin:miter;stroke-opacity:1" d="M430 442.362l10 10" id="path3782-9-3-0-1-8-6"/><path transform="translate(490 350)" style="color:#000;fill:#92a1a4;fill-opacity:1;fill-rule:nonzero;stroke:none;stroke-width:1px;marker:none;visibility:visible;display:inline;overflow:visible;enable-background:accumulate" id="path2987-2-8-4-9" d="M70 62.362c0 5.523-4.477 10-10 10s-10-4.477-10-10 4.477-10 10-10 10 4.477 10 10z"/><path style="fill:none;stroke:#ff0404;stroke-width:1px;stroke-linecap:butt;stroke-linejoin:miter;stroke-opacity:1" d="M440.104 432.027l10 10" id="path3782-9-3-0-1-8-6-9"/></g></svg>