<svg xmlns="http://www.w3.org/2000/svg" width="300" height="200" viewBox="0 0 283 180" id="svg2"><g id="layer1" transform="translate(-447.627 -52.926)"><path style="opacity:.78508768;color:#000;fill:#e6deb3;fill-opacity:1;fill-rule:nonzero;stroke:none;stroke-width:1px;marker:none;visibility:visible;display:inline;overflow:visible;enable-background:accumulate" id="path3979-4" d="M230 112.362c0 44.183-49.249 80-110 80s-110-35.817-110-80 49.249-80 110-80 110 35.817 110 80z" transform="matrix(.9806 -.36251 .36843 .99658 400.406 73.612)"/><path style="fill:none;stroke:#ff0404;stroke-width:1px;stroke-linecap:butt;stroke-linejoin:miter;stroke-opacity:1" d="M510 92.362v120" id="path3782-1"/><path style="fill:none;stroke:#ff0404;stroke-width:1px;stroke-linecap:butt;stroke-linejoin:miter;stroke-opacity:1" d="M570 152.362l-60 60" id="path3782-9-3"/><path style="fill:none;stroke:#ff0404;stroke-width:1px;stroke-linecap:butt;stroke-linejoin:miter;stroke-opacity:1" d="M510 92.362l60 60" id="path3782-0-6"/><path style="fill:none;stroke:#ff0404;stroke-width:1px;stroke-linecap:butt;stroke-linejoin:miter;stroke-opacity:1" d="M650 152.362h-80" id="path3782-3-84"/><path style="fill:none;stroke:#1fff09;stroke-width:1px;stroke-linecap:butt;stroke-linejoin:miter;stroke-opacity:1" d="M730 152.362h-80" id="path3782-3-8-3"/><path style="fill:none;stroke:#1fff09;stroke-width:1px;stroke-linecap:butt;stroke-linejoin:miter;stroke-opacity:1" d="M650 232.362v-80" id="path3782-3-5-2"/><path transform="translate(450 30)" style="color:#000;fill:#92a1a4;fill-opacity:1;fill-rule:nonzero;stroke:none;stroke-width:1px;marker:none;visibility:visible;display:inline;overflow:visible;enable-background:accumulate" id="path2987-5" d="M70 62.362c0 5.523-4.477 10-10 10s-10-4.477-10-10 4.477-10 10-10 10 4.477 10 10z"/><path transform="translate(510 90)" style="color:#000;fill:#92a1a4;fill-opacity:1;fill-rule:nonzero;stroke:none;stroke-width:1px;marker:none;visibility:visible;display:inline;overflow:visible;enable-background:accumulate" id="path2987-2-85" d="M70 62.362c0 5.523-4.477 10-10 10s-10-4.477-10-10 4.477-10 10-10 10 4.477 10 10z"/><path transform="translate(450 150)" style="color:#000;fill:#92a1a4;fill-opacity:1;fill-rule:nonzero;stroke:none;stroke-width:1px;marker:none;visibility:visible;display:inline;overflow:visible;enable-background:accumulate" id="path2987-8-5" d="M70 62.362c0 5.523-4.477 10-10 10s-10-4.477-10-10 4.477-10 10-10 10 4.477 10 10z"/><path transform="translate(590 90)" style="color:#000;fill:#92a1a4;fill-opacity:1;fill-rule:nonzero;stroke:none;stroke-width:1px;marker:none;visibility:visible;display:inline;overflow:visible;enable-background:accumulate" id="path2987-2-8-4" d="M70 62.362c0 5.523-4.477 10-10 10s-10-4.477-10-10 4.477-10 10-10 10 4.477 10 10z"/></g></svg>