<svg xmlns="http://www.w3.org/2000/svg" width="300" height="200" viewBox="0 0 389 408" id="svg4771"><g id="layer1" transform="translate(0 -644.362)"><path style="fill:#c5c5c5;fill-opacity:1;stroke-width:1.39999998000000003;stroke-miterlimit:4;stroke-dasharray:none" id="path4705-3" d="M180.638 215.802a80.926 80.926 0 1 1-161.852 0 80.926 80.926 0 1 1 161.852 0z" transform="matrix(1.17212 0 0 1.17212 172.055 699.06)"/><path style="fill:#c5c5c5;fill-opacity:1;stroke-width:1.39999998000000003;stroke-miterlimit:4;stroke-dasharray:none" id="path4705-8" d="M180.638 215.802a80.926 80.926 0 1 1-161.852 0 80.926 80.926 0 1 1 161.852 0z" transform="matrix(1.0353 0 0 1.0353 199.053 508.37)"/><path style="fill:#c5c5c5;fill-opacity:1;stroke-width:1.39999998000000003;stroke-miterlimit:4;stroke-dasharray:none" id="path4705" d="M180.638 215.802a80.926 80.926 0 1 1-161.852 0 80.926 80.926 0 1 1 161.852 0z" transform="translate(-14.468 631.167)"/><path style="fill:#000;fill-opacity:1;fill-rule:evenodd;stroke:#000;stroke-width:1px;stroke-linecap:butt;stroke-linejoin:miter;stroke-opacity:1" id="path3821" d="M88.73 145.813a6.046 6.046 0 1 1-12.092 0 6.046 6.046 0 1 1 12.092 0z" transform="translate(1.993 644.085)"/><path style="fill:#000;fill-opacity:1;fill-rule:evenodd;stroke:#000;stroke-width:1px;stroke-linecap:butt;stroke-linejoin:miter;stroke-opacity:1" id="path3821-8" d="M88.73 145.813a6.046 6.046 0 1 1-12.092 0 6.046 6.046 0 1 1 12.092 0z" transform="translate(-48.674 713.144)"/><path style="fill:#000;fill-opacity:1;fill-rule:evenodd;stroke:#000;stroke-width:1px;stroke-linecap:butt;stroke-linejoin:miter;stroke-opacity:1" id="path3821-0" d="M88.73 145.813a6.046 6.046 0 1 1-12.092 0 6.046 6.046 0 1 1 12.092 0z" transform="translate(14 744.31)"/><path style="fill:#000;fill-opacity:1;fill-rule:evenodd;stroke:#000;stroke-width:1px;stroke-linecap:butt;stroke-linejoin:miter;stroke-opacity:1" id="path3821-4" d="M88.73 145.813a6.046 6.046 0 1 1-12.092 0 6.046 6.046 0 1 1 12.092 0z" transform="translate(51.637 682.148)"/><path style="fill:#000;fill-opacity:1;fill-rule:evenodd;stroke:#000;stroke-width:1px;stroke-linecap:butt;stroke-linejoin:miter;stroke-opacity:1" id="path3821-3" d="M88.73 145.813a6.046 6.046 0 1 1-12.092 0 6.046 6.046 0 1 1 12.092 0z" transform="translate(164.04 613.345)"/><path style="fill:#000;fill-opacity:1;fill-rule:evenodd;stroke:#000;stroke-width:1px;stroke-linecap:butt;stroke-linejoin:miter;stroke-opacity:1" id="path3821-43" d="M88.73 145.813a6.046 6.046 0 1 1-12.092 0 6.046 6.046 0 1 1 12.092 0z" transform="translate(170.34 556.632)"/><path style="fill:#000;fill-opacity:1;fill-rule:evenodd;stroke:#000;stroke-width:1px;stroke-linecap:butt;stroke-linejoin:miter;stroke-opacity:1" id="path3821-5" d="M88.73 145.813a6.046 6.046 0 1 1-12.092 0 6.046 6.046 0 1 1 12.092 0z" transform="translate(233.014 531.938)"/><path style="fill:#000;fill-opacity:1;fill-rule:evenodd;stroke:#000;stroke-width:1px;stroke-linecap:butt;stroke-linejoin:miter;stroke-opacity:1" id="path3821-1" d="M88.73 145.813a6.046 6.046 0 1 1-12.092 0 6.046 6.046 0 1 1 12.092 0z" transform="translate(283.595 569.405)"/><path style="fill:#000;fill-opacity:1;fill-rule:evenodd;stroke:#000;stroke-width:1px;stroke-linecap:butt;stroke-linejoin:miter;stroke-opacity:1" id="path3821-7" d="M88.73 145.813a6.046 6.046 0 1 1-12.092 0 6.046 6.046 0 1 1 12.092 0z" transform="translate(229.097 639.572)"/><path style="fill:#000;fill-opacity:1;fill-rule:evenodd;stroke:#000;stroke-width:1px;stroke-linecap:butt;stroke-linejoin:miter;stroke-opacity:1" id="path3821-431" d="M88.73 145.813a6.046 6.046 0 1 1-12.092 0 6.046 6.046 0 1 1 12.092 0z" transform="translate(270.651 769.005)"/><path style="fill:#000;fill-opacity:1;fill-rule:evenodd;stroke:#000;stroke-width:1px;stroke-linecap:butt;stroke-linejoin:miter;stroke-opacity:1" id="path3821-46" d="M88.73 145.813a6.046 6.046 0 1 1-12.092 0 6.046 6.046 0 1 1 12.092 0z" transform="translate(214.45 813.114)"/><path style="fill:#000;fill-opacity:1;fill-rule:evenodd;stroke:#000;stroke-width:1px;stroke-linecap:butt;stroke-linejoin:miter;stroke-opacity:1" id="path3821-9" d="M88.73 145.813a6.046 6.046 0 1 1-12.092 0 6.046 6.046 0 1 1 12.092 0z" transform="translate(188.904 743.97)"/><path style="fill:#000;fill-opacity:1;fill-rule:evenodd;stroke:#000;stroke-width:1px;stroke-linecap:butt;stroke-linejoin:miter;stroke-opacity:1" id="path3821-42" d="M88.73 145.813a6.046 6.046 0 1 1-12.092 0 6.046 6.046 0 1 1 12.092 0z" transform="translate(139.175 812.944)"/><path style="fill:#000;fill-opacity:1;fill-rule:evenodd;stroke:#000;stroke-width:1px;stroke-linecap:butt;stroke-linejoin:miter;stroke-opacity:1" id="path3821-2" d="M88.73 145.813a6.046 6.046 0 1 1-12.092 0 6.046 6.046 0 1 1 12.092 0z" transform="translate(214.62 875.447)"/><path style="fill:none;stroke:#000;stroke-width:1.39999998;stroke-linecap:butt;stroke-linejoin:miter;stroke-miterlimit:4;stroke-opacity:1;stroke-dasharray:none" d="M85.443 788.961L33.67 859.468l61.991 29.633z" id="path4693"/><path style="fill:none;stroke:#000;stroke-width:1.39999998;stroke-linecap:butt;stroke-linejoin:miter;stroke-miterlimit:4;stroke-opacity:1;stroke-dasharray:none" d="M35.713 859.127l98.438-32.017-50.07-37.808" id="path4695"/><path style="fill:none;stroke:#000;stroke-width:1.39999998;stroke-linecap:butt;stroke-linejoin:miter;stroke-miterlimit:4;stroke-opacity:1;stroke-dasharray:none" d="M134.15 828.472l87.879 130.796 74.935 62.332 56.542-106.953-81.748-25.205-49.73 69.144 74.595.341-24.865-69.144 39.852-104.228 54.498-71.188-12.602 200.621-131.818 43.598" id="path4697"/><path style="fill:none;stroke:#000;stroke-width:1.39999998;stroke-linecap:butt;stroke-linejoin:miter;stroke-miterlimit:4;stroke-opacity:1;stroke-dasharray:none" d="M297.304 958.586v61.992" id="path4699"/><path style="fill:none;stroke:#000;stroke-width:1.39999998;stroke-linecap:butt;stroke-linejoin:miter;stroke-miterlimit:4;stroke-opacity:1;stroke-dasharray:none" d="M311.27 785.555l4.427-108.315-62.672 25.205-6.131 56.201 119.896-43.939-113.765-12.602z" id="path4701"/><path style="fill:none;stroke:#000;stroke-width:1.39999998;stroke-linecap:butt;stroke-linejoin:miter;stroke-miterlimit:4;stroke-opacity:1;stroke-dasharray:none" d="M134.15 827.79l112.403-68.462" id="path4703"/></g></svg>