<svg xmlns="http://www.w3.org/2000/svg" xmlns:xlink="http://www.w3.org/1999/xlink" width="300" height="130" viewBox="0 0 127 77" id="svg3030"><defs id="defs3032"><linearGradient id="linearGradient3834"><stop style="stop-color:#fff;stop-opacity:1" offset="0" id="stop3836"/><stop style="stop-color:#d4d4d4;stop-opacity:1" offset="1" id="stop3838"/></linearGradient><linearGradient xlink:href="#linearGradient3834" id="linearGradient3848" x1="36.359" y1="37.359" x2="96.146" y2="37.359" gradientUnits="userSpaceOnUse"/></defs><path style="color:#000;fill:#fff;fill-opacity:1;fill-rule:nonzero;stroke:#555c61;stroke-width:1.7701149;stroke-opacity:1;marker:none;visibility:visible;display:inline;overflow:visible;enable-background:accumulate" d="M42.055.885h39.828a17.662 17.662 0 0 1 17.7 17.701v9.957l10 9.957-10 9.957v9.957a17.662 17.662 0 0 1-17.7 17.7H42.055a17.662 17.662 0 0 1-17.701-17.7v-9.957l10-9.957-10-9.957v-9.957A17.662 17.662 0 0 1 42.055.886z" id="rect3779"/><path d="M86.925 38.469h40" id="path3301" style="fill:none;stroke:#555c61;stroke-width:5;stroke-linecap:butt;stroke-linejoin:miter;stroke-miterlimit:4;stroke-opacity:1;stroke-dasharray:none"/><path style="fill:none;stroke:#555c61;stroke-width:5;stroke-linecap:butt;stroke-linejoin:miter;stroke-miterlimit:4;stroke-opacity:1;stroke-dasharray:none" id="path5020" d="M-.015 38.469h50.984"/><path style="color:#000;fill:url(#linearGradient3848);fill-opacity:1;stroke:#6f6f6f;stroke-width:.72644591000000003;stroke-linecap:butt;stroke-linejoin:round;stroke-miterlimit:4;stroke-opacity:1;stroke-dashoffset:0;marker:none;visibility:visible;display:inline;overflow:visible;enable-background:accumulate" d="M57.219 10.5c-4.377 0-7.907 3.708-7.907 8.25 0 1.09.193 2.111.563 3.063a7.449 7.449 0 0 0-2.656-.47 7.498 7.498 0 0 0-7.5 7.5c0 1.629.525 3.146 1.406 4.376-2.874 2.133-4.75 5.552-4.75 9.406a11.675 11.675 0 0 0 11.688 11.688c.842 0 1.676-.113 2.468-.282-.03.28-.062.587-.062.875 0 4.476 3.65 8.094 8.125 8.094a8.021 8.021 0 0 0 6.718-3.594 11.688 11.688 0 0 0 9.47 4.813c6.464 0 11.718-5.254 11.718-11.719a11.7 11.7 0 0 0-.594-3.625c5.668-.153 10.25-4.764 10.25-10.469 0-5.801-4.73-10.5-10.531-10.5-.675 0-1.33.066-1.969.188.08-.555.156-1.142.156-1.719 0-6.465-5.254-11.688-11.718-11.688-2.667 0-5.126.906-7.094 2.407-.739-3.748-3.952-6.594-7.781-6.594z" id="path3019"/></svg>