<svg xmlns="http://www.w3.org/2000/svg" xmlns:xlink="http://www.w3.org/1999/xlink" width="1010" height="200" viewBox="0 0 602 107" id="svg3030"><defs id="defs3032"><linearGradient id="linearGradient3801"><stop style="stop-color:#555c61;stop-opacity:1" offset="0" id="stop3803"/><stop id="stop3807" offset=".513" style="stop-color:#fff;stop-opacity:1"/><stop style="stop-color:#555c61;stop-opacity:1" offset="1" id="stop3805"/></linearGradient><linearGradient id="linearGradient3795"><stop id="stop3797" offset="0" style="stop-color:#555c61;stop-opacity:1"/><stop id="stop3799" offset="1" style="stop-color:#555c61;stop-opacity:0"/></linearGradient><linearGradient id="linearGradient3809"><stop style="stop-color:#555c61;stop-opacity:1" offset="0" id="stop3811"/><stop style="stop-color:#555c61;stop-opacity:1" offset="1" id="stop3813"/></linearGradient><radialGradient xlink:href="#linearGradient3809" id="radialGradient3851" cx="0" cy="0" fx="0" fy="0" r="15" gradientUnits="userSpaceOnUse"/><linearGradient xlink:href="#linearGradient3801" id="linearGradient3793" x1="37.897" y1="122.03" x2="70.443" y2="122.03" gradientUnits="userSpaceOnUse" spreadMethod="reflect" gradientTransform="translate(15.21 -54.087)"/><linearGradient gradientTransform="translate(239.753 28.988) scale(1.0063)" xlink:href="#linearGradient3834" id="linearGradient3848" x1="36.359" y1="37.359" x2="96.146" y2="37.359" gradientUnits="userSpaceOnUse"/><linearGradient id="linearGradient3834"><stop style="stop-color:#fff;stop-opacity:1" offset="0" id="stop3836"/><stop style="stop-color:#d4d4d4;stop-opacity:1" offset="1" id="stop3838"/></linearGradient></defs><style id="style3018"/><g id="g3130" transform="translate(-199.125 6.474)"><path id="rect3779-5" d="M217.701 23.885h39.828a17.662 17.662 0 0 1 17.7 17.701v9.957l10 9.957-10 9.957v9.957a17.662 17.662 0 0 1-17.7 17.7H217.7A17.662 17.662 0 0 1 200 81.415V41.586a17.662 17.662 0 0 1 17.701-17.7z" style="color:#000;fill:#fff;fill-opacity:1;fill-rule:nonzero;stroke:#555c61;stroke-width:1.7701149;stroke-opacity:1;marker:none;visibility:visible;display:inline;overflow:visible;enable-background:accumulate"/><circle transform="translate(237.58 61.503)" style="color:#000;fill:#555c61;fill-opacity:1;fill-rule:nonzero;stroke:none;stroke-width:5;marker:none;visibility:visible;display:inline;overflow:visible;enable-background:accumulate" r="15" id="source"/><path transform="translate(-91.113 15.088)" d="M346.234 28.6c9.833 9.681 9.962 25.499.289 35.34" id="source-arc" style="color:#000;fill:none;stroke:#555c61;stroke-width:5;stroke-linecap:butt;stroke-linejoin:round;stroke-miterlimit:4;stroke-opacity:1;stroke-dasharray:none;stroke-dashoffset:0;marker:none;visibility:visible;display:inline;overflow:visible;enable-background:accumulate"/></g><path d="M63.446 67.943H297.9" id="path3301-8" style="fill:none;stroke:#555c61;stroke-width:5;stroke-linecap:butt;stroke-linejoin:miter;stroke-miterlimit:4;stroke-opacity:1;stroke-dasharray:none"/><g id="qsdqsdqsdqsd" transform="translate(237.42 6.474)"><path id="rect3779" d="M42.055 23.885h39.828a17.662 17.662 0 0 1 17.7 17.701v9.957l10 9.957-10 9.957v9.957a17.662 17.662 0 0 1-17.7 17.7H42.055a17.662 17.662 0 0 1-17.701-17.7v-9.957l10-9.957-10-9.957v-9.957a17.662 17.662 0 0 1 17.701-17.7z" style="color:#000;fill:#fff;fill-opacity:1;fill-rule:nonzero;stroke:#555c61;stroke-width:1.7701149;stroke-opacity:1;marker:none;visibility:visible;display:inline;overflow:visible;enable-background:accumulate"/><path style="fill:none;stroke:#555c61;stroke-width:5;stroke-linecap:butt;stroke-linejoin:miter;stroke-miterlimit:4;stroke-opacity:1;stroke-dasharray:none" id="path3301" d="M86.925 61.469h238.874"/><path transform="translate(-266.76 15.088)" d="M346.234 28.6c9.833 9.681 9.962 25.499.289 35.34" id="pipe-arc" style="color:#000;fill:none;stroke:#555c61;stroke-width:5;stroke-linecap:butt;stroke-linejoin:round;stroke-miterlimit:4;stroke-opacity:1;stroke-dasharray:none;stroke-dashoffset:0;marker:none;visibility:visible;display:inline;overflow:visible;enable-background:accumulate"/><path d="M-.015 61.469h50.984" id="path5020" style="fill:none;stroke:#555c61;stroke-width:5;stroke-linecap:butt;stroke-linejoin:miter;stroke-miterlimit:4;stroke-opacity:1;stroke-dasharray:none"/><circle transform="translate(61.935 61.503)" style="color:#000;fill:#555c61;fill-opacity:1;fill-rule:nonzero;stroke:none;stroke-width:5;marker:none;visibility:visible;display:inline;overflow:visible" r="15" id="pipe"/></g><g transform="translate(499.76 24.474)" id="g3034"><path style="color:#000;fill:#fff;fill-opacity:1;fill-rule:nonzero;stroke:#555c61;stroke-width:1.7701149;stroke-opacity:1;marker:none;visibility:visible;display:inline;overflow:visible;enable-background:accumulate" d="M43.586 5.885h39.828a17.662 17.662 0 0 1 17.7 17.701v9.957l.001 9.957v19.914a17.662 17.662 0 0 1-17.701 17.7H43.586a17.662 17.662 0 0 1-17.7-17.7v-9.957l9.999-9.957-10-9.957v-9.957a17.662 17.662 0 0 1 17.701-17.7z" id="rect3779-7"/><path d="M4.5 43.469h50" id="path3301-3" style="fill:none;stroke:#555c61;stroke-width:5;stroke-linecap:butt;stroke-linejoin:miter;stroke-miterlimit:4;stroke-opacity:1;stroke-dasharray:none;marker-end:none"/><circle class="test" id="sink" r="15" style="color:#000;fill:#555c61;fill-opacity:1;fill-rule:nonzero;stroke:none;stroke-width:5;marker:none;visibility:visible;display:inline;overflow:visible;enable-background:accumulate" transform="translate(63.466 43.503)"/></g><text style="font-size:22px;font-style:normal;font-variant:normal;font-weight:400;font-stretch:normal;text-indent:0;text-align:center;text-decoration:none;line-height:155.99999428%;letter-spacing:0;word-spacing:0;text-transform:none;direction:ltr;block-progression:tb;writing-mode:lr-tb;text-anchor:middle;baseline-shift:baseline;color:#000;fill:#000;fill-opacity:1;fill-rule:nonzero;stroke:none;stroke-width:1px;marker:none;visibility:visible;display:inline;overflow:visible;enable-background:accumulate;font-family:Sans-Serif;-inkscape-font-specification:Sans-Serif" x="38.419" y="16.715" id="text3114"><tspan id="tspan3116" x="38.419" y="16.715">Graph</tspan></text><text style="font-size:22px;font-style:normal;font-variant:normal;font-weight:400;font-stretch:normal;text-indent:0;text-align:center;text-decoration:none;line-height:155.99999428%;letter-spacing:0;word-spacing:0;text-transform:none;direction:ltr;block-progression:tb;writing-mode:lr-tb;text-anchor:middle;baseline-shift:baseline;color:#000;fill:#000;fill-opacity:1;fill-rule:nonzero;stroke:none;stroke-width:1px;marker:none;visibility:visible;display:inline;overflow:visible;enable-background:accumulate;font-family:Sans-Serif;-inkscape-font-specification:Sans-Serif" x="299.527" y="16.715" id="text3118"><tspan id="tspan3120" x="299.527" y="16.715">ProxyPipe</tspan></text><text style="font-size:22px;font-style:normal;font-variant:normal;font-weight:400;font-stretch:normal;text-indent:0;text-align:center;text-decoration:none;line-height:155.99999428%;letter-spacing:0;word-spacing:0;text-transform:none;direction:ltr;block-progression:tb;writing-mode:lr-tb;text-anchor:middle;baseline-shift:baseline;color:#000;fill:#000;fill-opacity:1;fill-rule:nonzero;stroke:none;stroke-width:1px;marker:none;visibility:visible;display:inline;overflow:visible;enable-background:accumulate;font-family:Sans-Serif;-inkscape-font-specification:Sans-Serif" x="563.102" y="16.715" id="text3122"><tspan id="tspan3124" x="563.102" y="16.715">Viewer</tspan></text><path style="opacity:0;fill:none;stroke:url(#linearGradient3793);stroke-width:5;stroke-linecap:butt;stroke-linejoin:miter;stroke-miterlimit:4;stroke-opacity:1;stroke-dasharray:none" id="token" d="M55.608 67.856l27.545.174"/><path style="color:#000;fill:url(#linearGradient3848);fill-opacity:1;stroke:#6f6f6f;stroke-width:.73102301;stroke-linecap:butt;stroke-linejoin:round;stroke-miterlimit:4;stroke-opacity:1;stroke-dashoffset:0;marker:none;visibility:visible;display:inline;overflow:visible;enable-background:accumulate" d="M297.332 39.554c-4.404 0-7.956 3.731-7.956 8.302 0 1.096.194 2.124.566 3.082a7.496 7.496 0 0 0-2.673-.472 7.545 7.545 0 0 0-7.547 7.547c0 1.639.529 3.165 1.415 4.403-2.892 2.146-4.78 5.587-4.78 9.465a11.749 11.749 0 0 0 11.761 11.762c.848 0 1.688-.113 2.485-.283-.03.282-.063.59-.063.88 0 4.504 3.672 8.145 8.176 8.145 2.834 0 5.3-1.423 6.761-3.617a11.762 11.762 0 0 0 9.529 4.843c6.505 0 11.792-5.287 11.792-11.792 0-1.274-.223-2.5-.597-3.648 5.703-.155 10.314-4.794 10.314-10.535 0-5.838-4.76-10.566-10.597-10.566-.68 0-1.338.066-1.982.189.082-.559.158-1.15.158-1.73 0-6.505-5.288-11.761-11.793-11.761-2.683 0-5.158.91-7.138 2.421-.744-3.771-3.977-6.635-7.83-6.635z" id="path3019"/></svg>