<svg xmlns="http://www.w3.org/2000/svg" width="500" height="500" viewBox="0 0 270 270"><path style="fill:#fff;fill-opacity:1" d="M0 0h270v270H0z"/><path style="fill:#000" d="M10 10h10v10H10zm10 0h10v10H20zm10 0h10v10H30zm10 0h10v10H40zm10 0h10v10H50zm10 0h10v10H60zm10 0h10v10H70zm30 0h10v10h-10zm20 0h10v10h-10zm20 0h10v10h-10zm30 0h10v10h-10zm20 0h10v10h-10zm10 0h10v10h-10zm10 0h10v10h-10zm10 0h10v10h-10zm10 0h10v10h-10zm10 0h10v10h-10zm10 0h10v10h-10zM10 20h10v10H10zm60 0h10v10H70zm20 0h10v10H90zm20 0h10v10h-10zm20 0h10v10h-10zm20 0h10v10h-10zm10 0h10v10h-10zm10 0h10v10h-10zm20 0h10v10h-10zm60 0h10v10h-10zM10 30h10v10H10zm20 0h10v10H30zm10 0h10v10H40zm10 0h10v10H50zm20 0h10v10H70zm30 0h10v10h-10zm10 0h10v10h-10zm10 0h10v10h-10zm10 0h10v10h-10zm20 0h10v10h-10zm10 0h10v10h-10zm30 0h10v10h-10zm20 0h10v10h-10zm10 0h10v10h-10zm10 0h10v10h-10zm20 0h10v10h-10zM10 40h10v10H10zm20 0h10v10H30zm10 0h10v10H40zm10 0h10v10H50zm20 0h10v10H70zm20 0h10v10H90zm10 0h10v10h-10zm40 0h10v10h-10zm20 0h10v10h-10zm30 0h10v10h-10zm20 0h10v10h-10zm10 0h10v10h-10zm10 0h10v10h-10zm20 0h10v10h-10zM10 50h10v10H10zm20 0h10v10H30zm10 0h10v10H40zm10 0h10v10H50zm20 0h10v10H70zm50 0h10v10h-10zm20 0h10v10h-10zm30 0h10v10h-10zm20 0h10v10h-10zm20 0h10v10h-10zm10 0h10v10h-10zm10 0h10v10h-10zm20 0h10v10h-10zM10 60h10v10H10zm60 0h10v10H70zm20 0h10v10H90zm20 0h10v10h-10zm40 0h10v10h-10zm10 0h10v10h-10zm10 0h10v10h-10zm20 0h10v10h-10zm60 0h10v10h-10zM10 70h10v10H10zm10 0h10v10H20zm10 0h10v10H30zm10 0h10v10H40zm10 0h10v10H50zm10 0h10v10H60zm10 0h10v10H70zm20 0h10v10H90zm20 0h10v10h-10zm20 0h10v10h-10zm20 0h10v10h-10zm20 0h10v10h-10zm20 0h10v10h-10zm10 0h10v10h-10zm10 0h10v10h-10zm10 0h10v10h-10zm10 0h10v10h-10zm10 0h10v10h-10zm10 0h10v10h-10zM120 80h10v10h-10zm30 0h10v10h-10zm10 0h10v10h-10zm10 0h10v10h-10zM10 90h10v10H10zm10 0h10v10H20zm10 0h10v10H30zm10 0h10v10H40zm10 0h10v10H50zm20 0h10v10H70zm10 0h10v10H80zm10 0h10v10H90zm10 0h10v10h-10zm10 0h10v10h-10zm10 0h10v10h-10zm10 0h10v10h-10zm10 0h10v10h-10zm10 0h10v10h-10zm10 0h10v10h-10zm20 0h10v10h-10zm20 0h10v10h-10zm20 0h10v10h-10zm20 0h10v10h-10zM10 100h10v10H10zm10 0h10v10H20zm20 0h10v10H40zm20 0h10v10H60zm20 0h10v10H80zm20 0h10v10h-10zm20 0h10v10h-10zm30 0h10v10h-10zm20 0h10v10h-10zm30 0h10v10h-10zm40 0h10v10h-10zM10 110h10v10H10zm10 0h10v10H20zm10 0h10v10H30zm10 0h10v10H40zm10 0h10v10H50zm10 0h10v10H60zm10 0h10v10H70zm10 0h10v10H80zm20 0h10v10h-10zm30 0h10v10h-10zm30 0h10v10h-10zm30 0h10v10h-10zm20 0h10v10h-10zm10 0h10v10h-10zm20 0h10v10h-10zm10 0h10v10h-10zM20 120h10v10H20zm10 0h10v10H30zm10 0h10v10H40zm10 0h10v10H50zm10 0h10v10H60zm40 0h10v10h-10zm10 0h10v10h-10zm10 0h10v10h-10zm60 0h10v10h-10zm10 0h10v10h-10zm60 0h10v10h-10zM20 130h10v10H20zm10 0h10v10H30zm10 0h10v10H40zm10 0h10v10H50zm10 0h10v10H60zm10 0h10v10H70zm10 0h10v10H80zm20 0h10v10h-10zm20 0h10v10h-10zm10 0h10v10h-10zm10 0h10v10h-10zm10 0h10v10h-10zm10 0h10v10h-10zm10 0h10v10h-10zm10 0h10v10h-10zm10 0h10v10h-10zm10 0h10v10h-10zm10 0h10v10h-10zm20 0h10v10h-10zm10 0h10v10h-10zm10 0h10v10h-10zM10 140h10v10H10zm20 0h10v10H30zm10 0h10v10H40zm20 0h10v10H60zm20 0h10v10H80zm10 0h10v10H90zm10 0h10v10h-10zm10 0h10v10h-10zm10 0h10v10h-10zm10 0h10v10h-10zm20 0h10v10h-10zm20 0h10v10h-10zm10 0h10v10h-10zm20 0h10v10h-10zm20 0h10v10h-10zm20 0h10v10h-10zM10 150h10v10H10zm30 0h10v10H40zm10 0h10v10H50zm20 0h10v10H70zm10 0h10v10H80zm30 0h10v10h-10zm20 0h10v10h-10zm10 0h10v10h-10zm20 0h10v10h-10zm30 0h10v10h-10zm10 0h10v10h-10zm10 0h10v10h-10zm10 0h10v10h-10zm20 0h10v10h-10zm10 0h10v10h-10zM10 160h10v10H10zm30 0h10v10H40zm10 0h10v10H50zm10 0h10v10H60zm20 0h10v10H80zm10 0h10v10H90zm20 0h10v10h-10zm50 0h10v10h-10zm10 0h10v10h-10zm20 0h10v10h-10zm10 0h10v10h-10zm20 0h10v10h-10zm30 0h10v10h-10zM10 170h10v10H10zm20 0h10v10H30zm10 0h10v10H40zm10 0h10v10H50zm10 0h10v10H60zm10 0h10v10H70zm10 0h10v10H80zm10 0h10v10H90zm20 0h10v10h-10zm30 0h10v10h-10zm10 0h10v10h-10zm10 0h10v10h-10zm10 0h10v10h-10zm10 0h10v10h-10zm10 0h10v10h-10zm10 0h10v10h-10zm10 0h10v10h-10zm20 0h10v10h-10zM90 180h10v10H90zm20 0h10v10h-10zm10 0h10v10h-10zm20 0h10v10h-10zm30 0h10v10h-10zm40 0h10v10h-10zm10 0h10v10h-10zm10 0h10v10h-10zM10 190h10v10H10zm10 0h10v10H20zm10 0h10v10H30zm10 0h10v10H40zm10 0h10v10H50zm10 0h10v10H60zm10 0h10v10H70zm20 0h10v10H90zm10 0h10v10h-10zm10 0h10v10h-10zm30 0h10v10h-10zm10 0h10v10h-10zm20 0h10v10h-10zm20 0h10v10h-10zm20 0h10v10h-10zm10 0h10v10h-10zm10 0h10v10h-10zm10 0h10v10h-10zm10 0h10v10h-10zM10 200h10v10H10zm60 0h10v10H70zm30 0h10v10h-10zm20 0h10v10h-10zm10 0h10v10h-10zm20 0h10v10h-10zm20 0h10v10h-10zm40 0h10v10h-10zm10 0h10v10h-10zM10 210h10v10H10zm20 0h10v10H30zm10 0h10v10H40zm10 0h10v10H50zm20 0h10v10H70zm20 0h10v10H90zm40 0h10v10h-10zm10 0h10v10h-10zm10 0h10v10h-10zm10 0h10v10h-10zm10 0h10v10h-10zm10 0h10v10h-10zm10 0h10v10h-10zm10 0h10v10h-10zm10 0h10v10h-10zm10 0h10v10h-10zm10 0h10v10h-10zm10 0h10v10h-10zM10 220h10v10H10zm20 0h10v10H30zm10 0h10v10H40zm10 0h10v10H50zm20 0h10v10H70zm20 0h10v10H90zm10 0h10v10h-10zm20 0h10v10h-10zm20 0h10v10h-10zm30 0h10v10h-10zm10 0h10v10h-10zm10 0h10v10h-10zm20 0h10v10h-10zm20 0h10v10h-10zm10 0h10v10h-10zm10 0h10v10h-10zM10 230h10v10H10zm20 0h10v10H30zm10 0h10v10H40zm10 0h10v10H50zm20 0h10v10H70zm20 0h10v10H90zm10 0h10v10h-10zm10 0h10v10h-10zm30 0h10v10h-10zm20 0h10v10h-10zm40 0h10v10h-10zm30 0h10v10h-10zm20 0h10v10h-10zM10 240h10v10H10zm60 0h10v10H70zm20 0h10v10H90zm10 0h10v10h-10zm10 0h10v10h-10zm60 0h10v10h-10zm30 0h10v10h-10zm10 0h10v10h-10zm10 0h10v10h-10zm30 0h10v10h-10zM10 250h10v10H10zm10 0h10v10H20zm10 0h10v10H30zm10 0h10v10H40zm10 0h10v10H50zm10 0h10v10H60zm10 0h10v10H70zm20 0h10v10H90zm10 0h10v10h-10zm10 0h10v10h-10zm20 0h10v10h-10zm10 0h10v10h-10zm10 0h10v10h-10zm40 0h10v10h-10zm10 0h10v10h-10zm10 0h10v10h-10zm10 0h10v10h-10zm10 0h10v10h-10zm10 0h10v10h-10zm10 0h10v10h-10z" id="elements"/></svg>