<svg xmlns="http://www.w3.org/2000/svg" width="108.469" height="87" id="svg3030"><defs id="defs3032"><marker orient="auto" id="Arrow2Send" style="overflow:visible"><path id="path3848" style="fill-rule:evenodd;stroke-width:.625;stroke-linejoin:round" d="M8.719 4.034L-2.207.016 8.719-4.002c-1.746 2.372-1.736 5.618 0 8.036z" transform="matrix(-.3 0 0 -.3 .69 0)"/></marker><marker orient="auto" id="Arrow1Lend" style="overflow:visible"><path id="path3818" d="M0 0l5-5-17.5 5L5 5 0 0z" style="fill-rule:evenodd;stroke:#000;stroke-width:1pt" transform="matrix(-.8 0 0 -.8 -10 0)"/></marker></defs><g id="g3786"><g id="g3034"><path style="color:#000;fill:#fff;fill-opacity:1;fill-rule:nonzero;stroke:#555c61;stroke-width:1.7701149;stroke-opacity:1;marker:none;visibility:visible;display:inline;overflow:visible;enable-background:accumulate" d="M43.586 5.885h39.828a17.662 17.662 0 0 1 17.7 17.701v9.957l.001 9.957v19.914a17.662 17.662 0 0 1-17.701 17.7H43.586a17.662 17.662 0 0 1-17.7-17.7v-9.957l9.999-9.957-10-9.957v-9.957a17.662 17.662 0 0 1 17.701-17.7z" id="rect3779"/><path d="M4.5 43.469h50" id="path3301" style="fill:none;stroke:#555c61;stroke-width:5;stroke-linecap:butt;stroke-linejoin:miter;stroke-miterlimit:4;stroke-opacity:1;stroke-dasharray:none;marker-end:none"/><circle id="circle3295" r="15" style="color:#000;fill:#555c61;fill-opacity:1;fill-rule:nonzero;stroke:none;stroke-width:5;marker:none;visibility:visible;display:inline;overflow:visible;enable-background:accumulate" transform="translate(63.466 43.503)"/></g></g></svg>